<?xml version="1.0" encoding="UTF-8"?>
<svg width="609px" height="526px" viewBox="0 0 609 526" version="1.1" xmlns="http://www.w3.org/2000/svg" xmlns:xlink="http://www.w3.org/1999/xlink">
    <!-- Generator: Sketch 55.2 (78181) - https://sketchapp.com -->
    <title>ngeduren.yk 1</title>
    <desc>Created with Sketch.</desc>
    <defs>
        <path d="M46.4634412,148.718996 C37.3923525,148.718996 29.6759549,146.882934 23.3140168,143.210753 C16.9520787,139.538572 12.1426475,134.55033 8.88557872,128.245878 C5.62850995,121.941426 4,114.889645 4,107.090323 C4,96.9512038 5.96334378,87.4296742 9.89009023,78.525448 C13.8168367,69.6212219 19.6916483,62.4069571 27.5147013,56.8824373 C35.3377543,51.3579174 44.7587605,48.5956989 55.7780025,48.5956989 C62.5356592,48.5956989 68.5017891,49.9280631 73.6765713,52.5928315 C78.8513534,55.2575999 82.8997987,59.2059476 85.8220286,64.4379928 C88.7442585,69.6700381 90.2053516,76.0231406 90.2053516,83.497491 C90.2053516,90.9718414 89.0029938,97.5686691 86.5982421,103.288172 C84.1934904,109.007675 81.0582282,113.410976 77.1923615,116.498208 C73.3264949,119.58544 69.2932693,121.129032 65.0925638,121.129032 C58.8828252,121.129032 54.8648193,118.39931 53.0384256,112.939785 C51.8817096,115.474565 50.3140786,117.473111 48.3354854,118.935484 C46.3568922,120.397857 44.1195935,121.129032 41.6235221,121.129032 C37.5445762,121.129032 34.3636548,119.68293 32.0806627,116.790681 C29.7976706,113.898432 28.6561917,110.047575 28.6561917,105.237993 C28.6561917,100.038445 29.7824509,95.1151965 32.0350031,90.4681004 C34.2875553,85.8210042 37.28584,82.0838851 41.0299471,79.2566308 C44.7740542,76.4293765 48.7464009,75.0157706 52.9471064,75.0157706 C54.2864618,75.0157706 55.1844252,75.2919925 55.6410236,75.8444444 C56.0976221,76.3968964 56.4781151,77.3880454 56.782514,78.8179211 C58.0609896,78.5579437 59.4003249,78.427957 60.80056,78.427957 C63.7836698,78.427957 65.2752022,79.5653411 65.2752022,81.8401434 C65.2752022,83.2050247 64.8186107,86.4546936 63.9054138,91.5892473 C62.5051786,99.0635977 61.8050716,104.263068 61.8050716,107.187814 C61.8050716,108.292718 62.1399054,109.202625 62.8095831,109.917563 C63.4792608,110.632501 64.5750805,110.989964 66.0970753,110.989964 C68.1061084,110.989964 70.1759902,109.771338 72.3067828,107.33405 C74.4375755,104.896762 76.2182826,101.549603 77.6489577,97.2924731 C79.0796327,93.0353431 79.7949596,88.3720684 79.7949596,83.302509 C79.7949596,75.5031868 77.5576608,69.5562929 73.0829963,65.4616487 C68.6083317,61.3670046 62.4747849,59.3197133 54.6821717,59.3197133 C46.3416405,59.3197133 39.2492514,61.4969914 33.4047915,65.8516129 C27.5603317,70.2062344 23.1770526,75.9743966 20.2548227,83.1562724 C17.3325927,90.3381482 15.8714997,98.1536017 15.8714997,106.602867 C15.8714997,116.157037 18.4436322,123.810007 23.5879745,129.562007 C28.7323167,135.314007 36.4791538,138.189964 46.8287181,138.189964 C51.5773417,138.189964 56.280235,137.523782 60.9375389,136.191398 C65.5948428,134.859014 70.4194938,132.795474 75.4116366,130.000717 C76.2030739,129.545756 76.9640598,129.31828 77.6946173,129.31828 C78.9122131,129.31828 79.9167146,129.821978 80.7081518,130.829391 C81.4995891,131.836803 81.8953018,133.055429 81.8953018,134.485305 C81.8953018,135.525214 81.6517863,136.516363 81.164748,137.458781 C80.6777097,138.401199 79.9167237,139.197368 78.8817673,139.847312 C74.4984224,142.707063 69.4302559,144.90059 63.6771157,146.427957 C57.9239756,147.955324 52.1861415,148.718996 46.4634412,148.718996 Z M44.3630989,111.282437 C45.7024543,111.282437 46.9809107,110.437523 48.1985065,108.74767 C49.4161023,107.057817 50.298846,104.815546 50.8467642,102.020789 L54.2255756,84.0824373 C51.6686244,84.1474316 49.309568,85.1710773 47.1483354,87.153405 C44.9871029,89.1357327 43.2672746,91.7517161 41.988799,95.0014337 C40.7103234,98.2511513 40.0710952,101.6958 40.0710952,105.335484 C40.0710952,107.350309 40.4515882,108.845156 41.2125856,109.820072 C41.9735829,110.794987 43.0237436,111.282437 44.3630989,111.282437 Z M107.647324,121.129032 C105.333892,121.129032 103.705382,119.829165 102.761745,117.229391 C101.818109,114.629617 101.346297,110.470041 101.346297,104.750538 C101.346297,96.301272 102.472557,88.27459 104.725109,80.6702509 C105.273027,78.7854147 106.17099,77.4043055 107.419026,76.5268817 C108.667062,75.649458 110.41733,75.2107527 112.669882,75.2107527 C113.887478,75.2107527 114.739782,75.3732361 115.22682,75.6982079 C115.713858,76.0231796 115.957374,76.6406167 115.957374,77.5505376 C115.957374,78.5904473 115.500782,80.9302088 114.587586,84.5698925 C113.978788,87.1696665 113.491757,89.4444347 113.126478,91.3942652 C112.761199,93.3440958 112.456805,95.7488507 112.213286,98.6086022 C114.222319,93.0190879 116.474837,88.4695516 118.970909,84.9598566 C121.46698,81.4501617 123.917355,78.9479167 126.322106,77.4530466 C128.726858,75.9581765 130.933717,75.2107527 132.94275,75.2107527 C136.899937,75.2107527 138.8785,77.3230374 138.8785,81.5476703 C138.8785,84.0824499 138.208833,88.664483 136.869477,95.2939068 C135.712761,100.948415 135.134412,104.685535 135.134412,106.505376 C135.134412,109.10515 136.017156,110.405018 137.78267,110.405018 C139.000265,110.405018 140.446139,109.608849 142.120333,108.016487 C143.794527,106.424126 146.031826,103.840639 148.832296,100.26595 C149.562854,99.3560289 150.384719,98.9010753 151.297915,98.9010753 C152.089353,98.9010753 152.713361,99.2910355 153.16996,100.070968 C153.626558,100.8509 153.854854,101.923291 153.854854,103.288172 C153.854854,105.887946 153.276504,107.902741 152.119788,109.332616 C149.501957,112.777317 146.686309,115.604529 143.67276,117.814337 C140.65921,120.024145 137.234773,121.129032 133.399347,121.129032 C130.294477,121.129032 127.950641,120.17038 126.367766,118.253047 C124.784891,116.335713 123.993466,113.557246 123.993466,109.917563 C123.993466,108.097721 124.419618,104.848052 125.271935,100.168459 C126.063373,96.0738147 126.459085,93.2466028 126.459085,91.6867384 C126.459085,90.6468287 126.124251,90.1268817 125.454574,90.1268817 C124.663136,90.1268817 123.552097,91.2155208 122.121422,93.3928315 C120.690747,95.5701423 119.229654,98.4460992 117.738099,102.020789 C116.246544,105.595478 115.044186,109.365094 114.130989,113.329749 C113.461312,116.384484 112.685106,118.448023 111.802349,119.52043 C110.919592,120.592837 109.534598,121.129032 107.647324,121.129032 Z M197.779403,99.0960573 C198.57084,99.0960573 199.194848,99.5022659 199.651447,100.314695 C200.108045,101.127125 200.336341,102.15077 200.336341,103.385663 C200.336341,104.880533 200.123265,106.050414 199.697106,106.895341 C199.270948,107.740267 198.60128,108.487691 197.688083,109.137634 C192.452421,112.907307 188.617052,115.702022 186.181861,117.521864 L180.33743,121.713978 C178.023998,135.167809 174.995274,145.745481 171.251167,153.447312 C167.50706,161.149142 162.743288,165 156.959708,165 C153.854838,165 151.328365,163.976354 149.380212,161.929032 C147.432058,159.88171 146.457996,157.200733 146.457996,153.886022 C146.457996,149.271423 148.162605,144.315678 151.571873,139.018638 C154.981141,133.721598 161.373423,127.206012 170.748911,119.471685 L171.296826,115.669534 C170.26187,117.424382 168.907315,118.772994 167.233121,119.715412 C165.558926,120.65783 163.899977,121.129032 162.256223,121.129032 C158.481676,121.129032 155.468171,119.666681 153.215619,116.741935 C150.963067,113.81719 149.836808,109.98258 149.836808,105.237993 C149.836808,100.038445 150.963067,95.1151965 153.215619,90.4681004 C155.468171,85.8210042 158.466456,82.0838851 162.210563,79.2566308 C165.95467,76.4293765 169.927017,75.0157706 174.127722,75.0157706 C175.467078,75.0157706 176.365041,75.2919925 176.82164,75.8444444 C177.278238,76.3968964 177.658731,77.3880454 177.96313,78.8179211 C179.119846,78.5579437 180.459181,78.427957 181.981176,78.427957 C183.503171,78.427957 184.583771,78.6716822 185.223009,79.1591398 C185.862247,79.6465974 186.181861,80.6052497 186.181861,82.0351254 C186.181861,82.8150577 186.151421,83.4324947 186.090541,83.8874552 C185.847022,85.9022801 185.086036,91.0042601 183.807561,99.1935484 C183.564042,100.753413 183.305306,102.459489 183.031347,104.311828 C182.757388,106.164167 182.468214,108.130217 182.163815,110.210036 C186.851558,106.310375 191.356595,102.865726 195.67906,99.8759857 C196.470498,99.3560309 197.170605,99.0960573 197.779403,99.0960573 Z M165.543715,111.282437 C166.94395,111.282437 168.283285,110.37253 169.561761,108.552688 C170.840237,106.732846 171.75342,104.133111 172.301338,100.753405 L175.223553,84.0824373 C172.727482,84.1474316 170.414084,85.1710773 168.283292,87.153405 C166.152499,89.1357327 164.447891,91.7517161 163.169415,95.0014337 C161.890939,98.2511513 161.251711,101.6958 161.251711,105.335484 C161.251711,107.350309 161.632204,108.845156 162.393202,109.820072 C163.154199,110.794987 164.20436,111.282437 165.543715,111.282437 Z M157.964219,155.543369 C159.486214,155.543369 161.206042,153.593568 163.123755,149.693907 C165.041469,145.794246 166.883055,139.587378 168.648569,131.073118 C163.960825,135.362745 160.582047,139.229851 158.512134,142.674552 C156.442222,146.119253 155.407281,149.141445 155.407281,151.741219 C155.407281,152.846123 155.605137,153.75603 156.000856,154.470968 C156.396574,155.185906 157.051022,155.543369 157.964219,155.543369 Z M240.060205,98.9010753 C240.851643,98.9010753 241.475651,99.2910355 241.93225,100.070968 C242.388848,100.8509 242.617144,101.923291 242.617144,103.288172 C242.617144,105.887946 242.038794,107.902741 240.882078,109.332616 C238.629526,112.257362 235.448605,114.954587 231.339219,117.424373 C227.229833,119.894158 222.831334,121.129032 218.143591,121.129032 C211.751213,121.129032 206.789584,119.276721 203.258556,115.572043 C199.727528,111.867365 197.962041,106.797882 197.962041,100.363441 C197.962041,95.8788306 198.844785,91.7030062 200.610299,87.8358423 C202.375813,83.9686784 204.826187,80.8977414 207.961497,78.6229391 C211.096806,76.3481368 214.643,75.2107527 218.600187,75.2107527 C222.131215,75.2107527 224.962082,76.3318884 227.092875,78.5741935 C229.223668,80.8164987 230.289048,83.854939 230.289048,87.6896057 C230.289048,92.174216 228.782296,96.0250735 225.768746,99.2422939 C222.755197,102.459514 217.656591,105.010504 210.472775,106.895341 C211.99477,109.885081 214.886517,111.379928 219.148102,111.379928 C221.887693,111.379928 225.007735,110.356283 228.508323,108.308961 C232.008911,106.261639 235.037635,103.580662 237.594586,100.26595 C238.325144,99.3560289 239.147009,98.9010753 240.060205,98.9010753 Z M217.04776,84.7648746 C214.795208,84.7648746 212.892743,86.1622321 211.340308,88.9569892 C209.787873,91.7517464 209.011668,95.1314019 209.011668,99.0960573 L209.011668,99.2910394 C212.603575,98.3811185 215.434443,97.0162576 217.504356,95.1964158 C219.574269,93.3765739 220.60921,91.2642892 220.60921,88.8594982 C220.60921,87.6246055 220.289596,86.6334565 219.650358,85.8860215 C219.01112,85.1385865 218.143596,84.7648746 217.04776,84.7648746 Z M291.198973,98.9010753 C291.990411,98.9010753 292.614419,99.2910355 293.071017,100.070968 C293.527616,100.8509 293.755912,101.923291 293.755912,103.288172 C293.755912,105.887946 293.177562,107.902741 292.020846,109.332616 C289.524775,112.582334 286.785225,115.360801 283.802116,117.6681 C280.819006,119.9754 277.866381,121.129032 274.944151,121.129032 C270.317287,121.129032 266.786312,118.236827 264.35112,112.45233 C261.794169,115.89703 259.55687,118.204295 257.639157,119.374194 C255.721443,120.544092 253.484145,121.129032 250.927194,121.129032 C247.213526,121.129032 244.154363,119.650433 241.749611,116.69319 C239.344859,113.735947 238.142502,109.885089 238.142502,105.140502 C238.142502,99.9409537 239.177442,95.1151955 241.247355,90.6630824 C243.317268,86.2109694 246.163356,82.5713403 249.785703,79.744086 C253.408051,76.9168317 257.471716,75.2432523 261.97682,74.7232975 C263.133536,62.1143933 265.340395,51.3417412 268.597464,42.4050179 C271.854533,33.4682946 276.131274,29 281.427816,29 C284.045647,29 286.222067,30.2673708 287.957141,32.8021505 C289.692215,35.3369302 290.559739,39.1715394 290.559739,44.3060932 C290.559739,51.5854605 288.88557,60.0995928 285.537181,69.8487455 C282.188793,79.5978982 277.714195,89.6068782 272.113255,99.8759857 C272.356774,103.645658 272.889464,106.342883 273.711341,107.967742 C274.533218,109.592601 275.583379,110.405018 276.861854,110.405018 C278.505609,110.405018 280.179778,109.625097 281.884412,108.065233 C283.589046,106.505369 285.872004,103.905633 288.733354,100.26595 C289.463912,99.3560289 290.285776,98.9010753 291.198973,98.9010753 Z M280.423304,38.5541219 C279.266588,38.5541219 278.10989,40.7476483 276.953174,45.134767 C275.796458,49.5218857 274.807176,55.2575512 273.985299,62.3419355 C273.163422,69.4263198 272.569852,76.8355647 272.204574,84.5698925 C279.02311,68.7112708 282.432327,55.972569 282.432327,46.353405 C282.432327,43.8836197 282.234471,41.9663151 281.838752,40.6014337 C281.443034,39.2365523 280.971222,38.5541219 280.423304,38.5541219 Z M254.123367,111.282437 C255.280083,111.282437 256.436781,110.778739 257.593497,109.771326 C258.750213,108.763914 260.211306,106.895354 261.97682,104.165591 C261.368022,100.655896 261.063628,96.7237972 261.063628,92.3691756 C261.063628,90.8093112 261.124507,88.2745695 261.246266,84.7648746 C257.897878,85.8697785 255.112669,88.2582851 252.890557,91.9304659 C250.668445,95.6026468 249.557405,99.6809812 249.557405,104.165591 C249.557405,108.910179 251.079377,111.282437 254.123367,111.282437 Z M300.239577,121.129032 C297.499986,121.129032 295.262688,119.78042 293.527614,117.083154 C291.79254,114.385889 290.925016,111.022481 290.925016,106.992832 C290.925016,102.118255 291.22941,97.6499606 291.838208,93.5878136 C292.447006,89.5256667 293.451507,85.2198555 294.851742,80.6702509 C295.46054,78.7204204 296.312845,77.3230628 297.408681,76.4781362 C298.504517,75.6332096 300.239565,75.2107527 302.613877,75.2107527 C303.953232,75.2107527 304.881635,75.4382295 305.399113,75.89319 C305.916591,76.3481504 306.175327,77.0305809 306.175327,77.9405018 C306.175327,78.4604566 305.840493,80.2152778 305.170815,83.2050179 C304.562017,85.6098089 304.074986,87.787087 303.709708,89.7369176 C302.492112,96.5613244 301.883323,101.110861 301.883323,103.385663 C301.883323,104.750544 302.03552,105.709197 302.339919,106.261649 C302.644318,106.814101 303.131349,107.090323 303.801027,107.090323 C304.714224,107.090323 305.855703,106.115422 307.225498,104.165591 C308.595293,102.215761 310.056386,99.2585622 311.608821,95.2939068 C313.161255,91.3292514 314.668008,86.4547482 316.129123,80.6702509 C316.616161,78.7204204 317.361927,77.3230628 318.366444,76.4781362 C319.37096,75.6332096 320.877712,75.2107527 322.886745,75.2107527 C324.286981,75.2107527 325.261043,75.3894845 325.808961,75.7469534 C326.356879,76.1044223 326.630834,76.7706044 326.630834,77.7455197 C326.630834,79.3703785 325.869848,83.8224248 324.347853,91.1017921 C322.643219,99.4210691 321.790915,104.555546 321.790915,106.505376 C321.790915,107.740269 322.03443,108.698921 322.521469,109.381362 C323.008507,110.063803 323.647735,110.405018 324.439172,110.405018 C325.656768,110.405018 327.102641,109.608849 328.776836,108.016487 C330.45103,106.424126 332.688329,103.840639 335.488799,100.26595 C336.219356,99.3560289 337.041221,98.9010753 337.954418,98.9010753 C338.745855,98.9010753 339.369864,99.2910355 339.826462,100.070968 C340.283061,100.8509 340.511357,101.923291 340.511357,103.288172 C340.511357,105.887946 339.933007,107.902741 338.776291,109.332616 C336.15846,112.777317 333.342812,115.604529 330.329263,117.814337 C327.315713,120.024145 323.891276,121.129032 320.055849,121.129032 C317.133619,121.129032 314.987639,119.926655 313.617844,117.521864 C312.248049,115.117073 311.563161,111.737417 311.563161,107.382796 C310.528205,111.802412 308.975793,115.198315 306.905881,117.570609 C304.835968,119.942903 302.613889,121.129032 300.239577,121.129032 Z M344.164126,121.129032 C341.850694,121.129032 340.222184,119.829165 339.278547,117.229391 C338.33491,114.629617 337.863099,110.470041 337.863099,104.750538 C337.863099,96.301272 338.989358,88.27459 341.24191,80.6702509 C341.789829,78.7854147 342.687792,77.4043055 343.935828,76.5268817 C345.183863,75.649458 346.934131,75.2107527 349.186683,75.2107527 C350.404279,75.2107527 351.256583,75.3732361 351.743622,75.6982079 C352.23066,76.0231796 352.474175,76.6406167 352.474175,77.5505376 C352.474175,78.5904473 352.017584,80.9302088 351.104387,84.5698925 C350.495589,87.1696665 350.008558,89.4444347 349.643279,91.3942652 C349.278001,93.3440958 348.973606,95.7488507 348.730087,98.6086022 C350.73912,93.0190879 352.991639,88.4695516 355.48771,84.9598566 C357.983781,81.4501617 360.434156,78.9479167 362.838908,77.4530466 C365.24366,75.9581765 367.450519,75.2107527 369.459552,75.2107527 C373.416738,75.2107527 375.395302,77.3230374 375.395302,81.5476703 C375.395302,82.3925968 375.121347,84.4398882 374.573429,87.6896057 C374.08639,90.2893798 373.842875,91.9142142 373.842875,92.5641577 C373.842875,94.83896 374.603861,95.9763441 376.125856,95.9763441 C377.83049,95.9763441 380.022129,94.5464898 382.70084,91.6867384 C383.492277,90.8418118 384.314142,90.4193548 385.166459,90.4193548 C385.957897,90.4193548 386.581905,90.7930668 387.038503,91.5405018 C387.495102,92.2879368 387.723398,93.2790858 387.723398,94.5139785 C387.723398,96.9187695 387.114609,98.8035774 385.897013,100.168459 C384.192379,102.053295 382.198596,103.661881 379.915604,104.994265 C377.632611,106.326649 375.212676,106.992832 372.655725,106.992832 C369.429096,106.992832 366.978721,106.115421 365.304527,104.360573 C363.630333,102.605726 362.793248,100.233468 362.793248,97.2437276 C362.793248,96.2688123 362.884567,95.2939117 363.067206,94.3189964 C363.188966,93.0191094 363.249844,92.1416988 363.249844,91.6867384 C363.249844,90.6468287 362.915011,90.1268817 362.245333,90.1268817 C361.332136,90.1268817 360.129778,91.2155208 358.638223,93.3928315 C357.146669,95.5701423 355.670356,98.4460992 354.209241,102.020789 C352.748126,105.595478 351.560988,109.365094 350.647791,113.329749 C349.978113,116.384484 349.201908,118.448023 348.319151,119.52043 C347.436394,120.592837 346.051399,121.129032 344.164126,121.129032 Z M424.525047,98.9010753 C425.316484,98.9010753 425.940492,99.2910355 426.397091,100.070968 C426.853689,100.8509 427.081985,101.923291 427.081985,103.288172 C427.081985,105.887946 426.503636,107.902741 425.34692,109.332616 C423.094367,112.257362 419.913446,114.954587 415.80406,117.424373 C411.694675,119.894158 407.296176,121.129032 402.608432,121.129032 C396.216054,121.129032 391.254425,119.276721 387.723398,115.572043 C384.19237,111.867365 382.426882,106.797882 382.426882,100.363441 C382.426882,95.8788306 383.309626,91.7030062 385.07514,87.8358423 C386.840654,83.9686784 389.291029,80.8977414 392.426338,78.6229391 C395.561647,76.3481368 399.107842,75.2107527 403.065028,75.2107527 C406.596056,75.2107527 409.426924,76.3318884 411.557716,78.5741935 C413.688509,80.8164987 414.753889,83.854939 414.753889,87.6896057 C414.753889,92.174216 413.247137,96.0250735 410.233587,99.2422939 C407.220038,102.459514 402.121432,105.010504 394.937617,106.895341 C396.459611,109.885081 399.351358,111.379928 403.612943,111.379928 C406.352534,111.379928 409.472576,110.356283 412.973164,108.308961 C416.473752,106.261639 419.502476,103.580662 422.059428,100.26595 C422.789985,99.3560289 423.61185,98.9010753 424.525047,98.9010753 Z M401.512601,84.7648746 C399.260049,84.7648746 397.357584,86.1622321 395.805149,88.9569892 C394.252715,91.7517464 393.476509,95.1314019 393.476509,99.0960573 L393.476509,99.2910394 C397.068417,98.3811185 399.899284,97.0162576 401.969197,95.1964158 C404.03911,93.3765739 405.074051,91.2642892 405.074051,88.8594982 C405.074051,87.6246055 404.754437,86.6334565 404.115199,85.8860215 C403.475961,85.1385865 402.608437,84.7648746 401.512601,84.7648746 Z M430.734754,121.129032 C428.421322,121.129032 426.792812,119.829165 425.849175,117.229391 C424.905539,114.629617 424.433727,110.470041 424.433727,104.750538 C424.433727,96.301272 425.559987,88.27459 427.812539,80.6702509 C428.360457,78.7854147 429.25842,77.4043055 430.506456,76.5268817 C431.754492,75.649458 433.50476,75.2107527 435.757312,75.2107527 C436.974908,75.2107527 437.827212,75.3732361 438.31425,75.6982079 C438.801288,76.0231796 439.044804,76.6406167 439.044804,77.5505376 C439.044804,78.5904473 438.588212,80.9302088 437.675016,84.5698925 C437.066218,87.1696665 436.579187,89.4444347 436.213908,91.3942652 C435.848629,93.3440958 435.544235,95.7488507 435.300716,98.6086022 C437.309749,93.0190879 439.562267,88.4695516 442.058339,84.9598566 C444.55441,81.4501617 447.004785,78.9479167 449.409536,77.4530466 C451.814288,75.9581765 454.021147,75.2107527 456.03018,75.2107527 C457.978334,75.2107527 459.454647,75.746948 460.459163,76.8193548 C461.46368,77.8917616 461.96593,79.467851 461.96593,81.5476703 C461.96593,83.2375234 461.631096,86.4221988 460.961419,91.1017921 C460.352621,95.0664475 459.86559,98.819815 459.500311,102.362007 C459.135032,105.904199 458.952396,109.852547 458.952396,114.207168 C458.952396,116.676954 458.480584,118.448023 457.536948,119.52043 C456.593311,120.592837 455.056119,121.129032 452.925327,121.129032 C450.916294,121.129032 449.455201,120.576589 448.542004,119.471685 C447.628807,118.366781 447.172215,116.70945 447.172215,114.499642 C447.172215,111.899868 447.598367,107.610305 448.450685,101.630824 C449.181242,96.4312763 449.546515,93.1166141 449.546515,91.6867384 C449.546515,90.6468287 449.211681,90.1268817 448.542004,90.1268817 C447.750566,90.1268817 446.639527,91.2155208 445.208852,93.3928315 C443.778177,95.5701423 442.317084,98.4460992 440.825529,102.020789 C439.333974,105.595478 438.131616,109.365094 437.218419,113.329749 C436.548742,116.384484 435.772536,118.448023 434.889779,119.52043 C434.007022,120.592837 432.622028,121.129032 430.734754,121.129032 Z M479.316584,121.129032 C476.637873,121.129032 474.61365,120.349112 473.243855,118.789247 C471.87406,117.229383 471.189172,115.182092 471.189172,112.647312 C471.189172,109.722566 471.965378,107.382804 473.517813,105.627957 C475.070247,103.87311 477.246667,102.995699 480.047138,102.995699 C482.725848,102.995699 484.750071,103.694378 486.119866,105.091756 C487.489661,106.489135 488.174549,108.552675 488.174549,111.282437 C488.174549,114.272177 487.383123,116.660684 485.800249,118.448029 C484.217374,120.235373 482.056174,121.129032 479.316584,121.129032 Z M546.892813,99.0960573 C547.68425,99.0960573 548.308258,99.5022659 548.764857,100.314695 C549.221455,101.127125 549.449751,102.15077 549.449751,103.385663 C549.449751,104.880533 549.236675,106.050414 548.810516,106.895341 C548.384358,107.740267 547.71469,108.487691 546.801493,109.137634 L529.268202,121.713978 C526.95477,135.167809 523.926045,145.745481 520.181938,153.447312 C516.437831,161.149142 511.674059,165 505.890479,165 C502.78561,165 500.259136,163.976354 498.310983,161.929032 C496.36283,159.88171 495.388768,157.200733 495.388768,153.886022 C495.388768,150.831287 496.043216,147.711605 497.352131,144.526882 C498.661047,141.342159 501.096202,137.686281 504.65767,133.55914 C508.219137,129.431998 513.256864,124.70373 519.771002,119.374194 L520.04496,117.1319 C520.471118,114.727109 520.958149,111.28246 521.506067,106.797849 C520.288471,111.477443 518.583863,115.03583 516.39219,117.473118 C514.200518,119.910406 511.887121,121.129032 509.451929,121.129032 C506.712339,121.129032 504.47504,119.78042 502.739966,117.083154 C501.004892,114.385889 500.137368,111.022481 500.137368,106.992832 C500.137368,102.118255 500.441762,97.6499606 501.05056,93.5878136 C501.659358,89.5256667 502.663859,85.2198555 504.064095,80.6702509 C504.672892,78.7204204 505.525197,77.3230628 506.621033,76.4781362 C507.716869,75.6332096 509.451917,75.2107527 511.826229,75.2107527 C513.165584,75.2107527 514.093987,75.4382295 514.611465,75.89319 C515.128944,76.3481504 515.387679,77.0305809 515.387679,77.9405018 C515.387679,78.4604566 515.052845,80.2152778 514.383167,83.2050179 C513.774369,85.6098089 513.287338,87.787087 512.92206,89.7369176 C512.435021,92.401686 512.008869,94.952676 511.643591,97.3899642 C511.278312,99.8272523 511.095675,101.825799 511.095675,103.385663 C511.095675,105.855448 511.734903,107.090323 513.013379,107.090323 C513.926576,107.090323 515.068055,106.115422 516.43785,104.165591 C517.807645,102.215761 519.268738,99.2585622 520.821173,95.2939068 C522.373608,91.3292514 523.88036,86.4547482 525.341475,80.6702509 C525.828513,78.7204204 526.574279,77.3230628 527.578796,76.4781362 C528.583312,75.6332096 530.090065,75.2107527 532.099098,75.2107527 C533.499333,75.2107527 534.473395,75.4057328 535.021313,75.7956989 C535.569231,76.185665 535.843186,76.8355988 535.843186,77.7455197 C535.843186,79.3703785 535.051761,84.9598089 533.468886,94.5139785 L531.094586,110.210036 C535.78233,106.440363 540.348246,102.995715 544.79247,99.8759857 C545.583908,99.3560309 546.284015,99.0960573 546.892813,99.0960573 Z M506.894991,155.543369 C508.416985,155.543369 510.121594,153.658561 512.008867,149.888889 C513.896141,146.119217 515.783386,139.847356 517.67066,131.073118 C512.982916,135.297751 509.588918,139.148609 507.488566,142.625806 C505.388213,146.103004 504.338052,149.141445 504.338052,151.741219 C504.338052,152.846123 504.535909,153.75603 504.931627,154.470968 C505.327346,155.185906 505.981794,155.543369 506.894991,155.543369 Z M587.255912,110.502509 C589.751983,111.022464 591,112.484815 591,114.889606 C591,116.514465 590.315113,117.960567 588.945317,119.227957 C587.575522,120.495347 585.612178,121.129032 583.055227,121.129032 C578.671882,121.129032 575.095248,119.68293 572.325218,116.790681 C569.555187,113.898432 568.170193,110.112568 568.170193,105.432975 C568.170193,102.898195 569.38777,101.078381 571.822962,99.9734767 C574.501673,98.738584 576.419357,97.4224682 577.576073,96.0250896 C578.732789,94.6277111 579.311139,92.9216349 579.311139,90.90681 C579.311139,89.7369117 579.082843,88.8595011 578.626245,88.274552 C578.169646,87.6896028 577.606517,87.3971326 576.936839,87.3971326 C575.293085,87.3971326 573.481938,88.6645035 571.503345,91.1992832 C569.524752,93.7340629 567.683166,96.99998 565.978531,100.997133 C564.273897,104.994285 562.934562,109.105116 561.960485,113.329749 C561.290808,116.384484 560.514602,118.448023 559.631845,119.52043 C558.749088,120.592837 557.364094,121.129032 555.47682,121.129032 C553.589547,121.129032 552.204552,120.397857 551.321795,118.935484 C550.439038,117.473111 549.845469,115.214591 549.54107,112.159857 C549.236671,109.105122 549.084474,104.620579 549.084474,98.7060932 C549.084474,88.6969631 550.043316,78.2655262 551.96103,67.4114695 C553.878743,56.5574129 556.709611,47.4420918 560.453718,40.065233 C564.197825,32.6883741 568.687642,29 573.923304,29 C576.723775,29 578.991513,30.2836192 580.726587,32.8508961 C582.461661,35.4181729 583.329185,38.7490835 583.329185,42.8437276 C583.329185,49.4081571 581.533258,56.2162132 577.94135,63.2681004 C574.349443,70.3199875 568.505071,78.5578979 560.408058,87.9820789 C560.225419,91.3617851 560.134101,94.8389308 560.134101,98.4136201 C563.056331,90.2893262 566.404669,84.3911773 570.179216,80.7189964 C573.953763,77.0468156 577.484738,75.2107527 580.772246,75.2107527 C583.816236,75.2107527 586.266611,76.3156401 588.123444,78.525448 C589.980278,80.735256 590.908681,83.4649778 590.908681,86.7146953 C590.908681,90.2893847 590.056376,93.5715502 588.351742,96.5612903 C586.647108,99.5510305 583.724922,102.215759 579.585096,104.555556 C579.950375,106.505386 580.696141,107.853999 581.822418,108.601434 C582.948694,109.348869 584.75984,109.982554 587.255912,110.502509 Z M572.0056,38.6516129 C570.909764,38.6516129 569.692187,40.3251923 568.352831,43.6724014 C567.013476,47.0196105 565.7198,51.5366502 564.471764,57.2236559 C563.223728,62.9106616 562.204007,69.1012807 561.41257,75.7956989 C565.187117,71.0511113 568.307159,65.8841379 570.772791,60.2946237 C573.238422,54.7051094 574.47122,49.6356261 574.47122,45.0860215 C574.47122,43.0062023 574.258144,41.4138645 573.831985,40.3089606 C573.405827,39.2040566 572.797038,38.6516129 572.0056,38.6516129 Z" id="path-1"></path>
    </defs>
    <g id="Page-1" stroke="none" stroke-width="1" fill="none" fill-rule="evenodd">
        <g id="ngeduren.yk-1" transform="translate(-125.000000, -155.000000)">
            <g id="durian-icon" transform="translate(153.000000, 155.000000)" fill-rule="nonzero">
                <path d="M113.275862,33 L12,33 L76.4482759,87.8275862 L12,131.689655 L94.862069,153.62069 L58.0344828,241.344828 L150.103448,219.413793 C153.031241,222.242897 156.235241,227.747586 159.310345,230.37931 L150.103448,329.068966 L242.172414,274.241379 L279,351 L315.827586,274.241379 L407.896552,329.068966 L398.689655,230.37931 C400.825655,228.372621 405.843414,221.530138 407.896552,219.413793 L499.965517,241.344828 L463.137931,153.62069 L546,131.689655 L481.551724,76.862069 L546,33 L113.275862,33 Z" id="Path" fill="#4BAD1A"></path>
                <path d="M224,217 L224,32.8332351 C208.449277,17.7277597 188.658286,9.98057978 168.5,11.1077703 C148.341714,9.98057978 128.550723,17.7277597 113,32.8332351 C113.042741,115.637421 157.514484,189.42316 224,217 L224,217 Z" id="Path" fill="#F9BB4B"></path>
                <path d="M224,32.8972494 L224,217.603986 C259.875436,232.798671 299.124564,232.798671 335,217.603986 L335,32.8972494 C319.449277,17.7474852 299.658286,9.97759087 279.5,11.1080863 C259.341714,9.97759087 239.550723,17.7474852 224,32.8972494 L224,32.8972494 Z" id="Path" fill="#ED9914"></path>
                <path d="M444,32.8332351 C428.449277,17.7277597 408.658286,9.98057978 388.5,11.1077703 C368.341714,9.98057978 348.550723,17.7277597 333,32.8332351 L333,217 C399.485516,189.42316 443.957259,115.637421 444,32.8332351 L444,32.8332351 Z" id="Path" fill="#F9BB4B"></path>
                <g id="Group" transform="translate(133.000000, 42.000000)" fill="#F4F4E6">
                    <path d="M13.9015432,30.4605156 L0.96882716,14.8442311 C10.4200125,5.12604077 22.6481915,0.0601588004 35.1481481,0.684444444 C47.6701161,0.0403443545 59.924469,5.10748315 69.3921327,14.8442311 L56.3300895,30.3291022 C50.2677514,24.8511906 42.759989,22.1069489 35.1481481,22.5866667 C27.498872,22.1083322 19.9590634,24.9025346 13.9015432,30.4605156 L13.9015432,30.4605156 Z" id="Path"></path>
                    <path d="M124.753395,30.4605156 L111.820679,14.8442311 C121.271864,5.12604077 133.500043,0.0601588004 146,0.684444444 C158.521968,0.0403443545 170.776321,5.10748315 180.243985,14.8442311 L167.181941,30.3291022 C161.119603,24.8511906 153.611841,22.1069489 146,22.5866667 C138.350724,22.1083322 130.810915,24.9025346 124.753395,30.4605156 L124.753395,30.4605156 Z" id="Path"></path>
                    <path d="M235.605247,30.4605156 L222.672531,14.8442311 C232.123716,5.12604077 244.351895,0.0601588004 256.851852,0.684444444 C269.37382,0.0403443545 281.628173,5.10748315 291.095836,14.8442311 L278.033793,30.3291022 C265.210253,19.9479142 248.318261,20.0001539 235.540583,30.4605156 L235.605247,30.4605156 Z" id="Path"></path>
                    <polygon id="Path" points="118.287037 99.2444444 136.762346 99.2444444 136.762346 121.146667 118.287037 121.146667"></polygon>
                    <polygon id="Path" points="155.237654 132.097778 173.712963 132.097778 173.712963 154 155.237654 154"></polygon>
                </g>
                <path d="M554.685,29.9729537 C553.606963,25.1922183 549.935806,21.8656476 545.741105,21.8685591 L447.358258,21.8685591 C430.392531,6.96811034 409.649518,-0.720917883 388.506133,0.0532303465 C368.798641,-0.511329985 349.421976,6.0964991 333.011437,18.978028 C316.600897,6.0964991 297.224232,-0.511329985 277.51674,0.0532303465 C257.809249,-0.511329985 238.432583,6.0964991 222.022044,18.978028 C205.611505,6.0964991 186.23484,-0.511329985 166.527348,0.0532303465 C145.383963,-0.720917883 124.64095,6.96811034 107.675223,21.8685591 L9.29237544,21.8685591 C5.27596294,21.8745394 1.72187045,24.9367767 0.496157039,29.4474581 C-0.729556377,33.9581394 0.653289862,38.8861875 3.91863903,41.6441545 L56.9068248,86.2892247 L4.66781743,121.47735 C1.34625471,123.711094 -0.467380293,128.124976 0.104331876,132.583603 C0.676044046,137.04223 3.51523095,140.626347 7.2483208,141.601991 L78.92897,160.374081 L47.2599968,235.14612 C45.6817331,238.872282 46.0406116,243.333153 48.1849084,246.642798 C50.3196578,249.969412 53.8858986,251.552399 57.3507823,250.711357 L144.976908,230.052241 L145.346872,230.532178 C146.049805,231.45933 146.789734,232.441019 147.56666,233.411802 L138.835495,326.126949 C138.457175,330.100226 139.952479,333.999174 142.732366,336.287894 C145.512254,338.576614 149.131148,338.888258 152.163471,337.100059 L236.82063,287.110233 L269.470009,354.508691 C271.117356,357.904637 274.180753,360 277.498242,360 C280.815731,360 283.879129,357.904637 285.526475,354.508691 L318.175854,287.110233 L402.87001,337.100059 C405.900757,338.886737 409.517316,338.576012 412.29648,336.290162 C415.075643,334.004312 416.572495,330.109278 416.197986,326.137856 L407.448322,233.302725 C408.160504,232.441019 408.900434,231.535683 409.621865,230.641255 L410.056573,230.106779 L497.645702,250.711357 C501.121494,251.575208 504.709705,250.015217 506.878338,246.697425 C509.046972,243.379634 509.412839,238.890286 507.81973,235.14612 L476.067514,160.395896 L547.748163,141.623806 C551.312172,140.689106 554.076416,137.369282 554.803978,133.149857 C555.53154,128.930432 554.086254,124.601092 551.114842,122.099087 L498.126656,77.4540166 L550.365663,42.2440761 C553.995439,39.7789965 555.767409,34.7448772 554.685,29.9729537 L554.685,29.9729537 Z M342.260553,37.859195 C355.82066,26.8129871 372.035117,21.2064086 388.506133,21.8685591 C404.95198,21.216201 421.141648,26.8018182 434.696218,37.8046567 C432.941535,108.735958 397.06994,172.289432 342.260553,201.572329 L342.260553,37.859195 Z M231.27116,37.859195 C244.831268,26.8129871 261.045725,21.2064086 277.51674,21.8685591 C293.987756,21.2064086 310.202213,26.8129871 323.762321,37.859195 L323.762321,209.829431 C293.653676,220.955506 261.379805,220.955506 231.27116,209.829431 L231.27116,37.859195 Z M166.527348,21.8685591 C182.998363,21.2064086 199.21282,26.8129871 212.772928,37.859195 L212.772928,201.572329 C157.963541,172.289432 122.091946,108.735958 120.337263,37.8046567 C133.891832,26.8018182 150.081501,21.216201 166.527348,21.8685591 L166.527348,21.8685591 Z M476.372735,66.9390282 C473.639634,68.7848683 471.890849,72.1440336 471.731796,75.8536102 C471.572742,79.5631867 473.025282,83.113255 475.58656,85.2748119 L523.450736,125.63317 L460.455006,142.125559 C457.67229,142.852278 455.329082,145.051409 454.103857,148.086194 C452.878631,151.120979 452.908238,154.652451 454.184106,157.658073 L482.726878,224.969269 L408.733949,207.517006 C405.929649,206.856062 403.023808,207.762121 400.862952,209.971231 C399.790054,211.061997 397.986477,213.24353 396.136653,215.545047 C394.545805,217.530242 392.899463,219.635421 391.928306,220.573481 C389.433988,222.904177 388.130857,226.583452 388.478385,230.314025 L395.877678,308.554701 L318.647559,262.927941 C314.253981,260.345296 308.914905,262.260574 306.484972,267.291007 L277.51674,327.108638 L248.548509,267.291007 C246.118576,262.260574 240.779499,260.345296 236.385921,262.927941 L159.128055,308.554701 L166.527348,230.314025 C166.891147,226.396013 165.434352,222.5513 162.716712,220.257158 C161.433895,218.952398 160.234423,217.537836 159.128055,216.024985 C157.504563,213.786715 155.739055,211.697323 153.84681,209.774893 C151.704215,207.747445 148.908293,206.948103 146.216289,207.59336 L72.2696065,225.045623 L100.858624,157.636257 C102.134492,154.630635 102.164099,151.099164 100.938873,148.064379 C99.7136473,145.029594 97.3704394,142.830463 94.5877235,142.103743 L34.6534516,126.418522 L78.6607457,96.7823978 C81.3938467,94.9365578 83.1426312,91.5773924 83.301685,87.8678158 C83.4607388,84.1582393 82.0081983,80.608171 79.4469205,78.4466141 L38.1496175,43.6838878 L102.144251,43.6838878 C107.120961,153.623209 184.161329,239.757481 277.51674,239.757481 C370.872152,239.757481 447.91252,153.623209 452.889229,43.6838878 L510.908934,43.6838878 L476.372735,66.9390282 Z" id="Shape" fill="#000000"></path>
                <path d="M202,57.2951082 C192.599792,47.5031136 180.43275,42.4072237 168,43.0549785 C155.56725,42.4072237 143.400208,47.5031136 134,57.2951082 L146.840572,73 C152.871954,67.392742 160.383527,64.5816745 168,65.0814746 C175.557607,64.5990349 183.011878,67.3588475 189.031022,72.867841 L202,57.2951082 Z" id="Path" fill="#000000"></path>
                <path d="M280,65.0814746 C287.557607,64.5990349 295.011878,67.3588475 301.031022,72.867841 L314,57.2951082 C304.599792,47.5031136 292.43275,42.4072237 280,43.0549785 C267.56725,42.4072237 255.400208,47.5031136 246,57.2951082 L258.840572,73 C264.871954,67.392742 272.383527,64.5816745 280,65.0814746 L280,65.0814746 Z" id="Path" fill="#000000"></path>
                <path d="M410.031022,72.867841 L423,57.2951082 C413.599792,47.5031136 401.43275,42.4072237 389,43.0549785 C376.56725,42.4072237 364.400208,47.5031136 355,57.2951082 L367.840572,73 C380.52721,62.4802859 397.298848,62.4277498 410.031022,72.867841 L410.031022,72.867841 Z" id="Path" fill="#000000"></path>
                <polygon id="Path" fill="#000000" points="250 141 268 141 268 164 250 164"></polygon>
                <polygon id="Path" fill="#000000" points="289 174 307 174 307 197 289 197"></polygon>
            </g>
            <g id="@ngeduren.yk" transform="translate(132.000000, 505.000000)">
                <g stroke-linejoin="round" fill-rule="nonzero">
                    <use fill="#FFFFFF" xlink:href="#path-1"></use>
                    <path stroke="#000000" stroke-width="22" d="M87.4551709,122.010031 C88.1399177,122.617577 88.7766411,123.293789 89.3580752,124.03389 C91.7197767,127.040076 92.8953018,130.66019 92.8953018,134.485305 C92.8953018,137.291753 92.2266072,140.013453 90.9369157,142.509003 C89.5280772,145.235102 87.4246288,147.450518 84.8247611,149.103986 C79.4432901,152.603733 73.3211488,155.24867 66.4996652,157.059665 C59.8345887,158.829137 53.1486482,159.718996 46.4634412,159.718996 C35.5560984,159.718996 25.9502387,157.433349 17.8150117,152.737606 C9.64565666,148.022165 3.3454462,141.487718 -0.887252581,133.294815 C-4.97145772,125.389341 -7,116.605337 -7,107.090323 C-7,95.4386322 -4.72480132,84.4047155 -0.174668604,74.0869089 C4.55341649,63.3655804 11.7103176,54.5769105 21.1693734,47.8970706 C30.9230227,41.0091934 42.5653139,37.5956989 55.7780025,37.5956989 C64.2249543,37.5956989 71.9155186,39.3131661 78.7125577,42.8133203 C85.8262054,46.4765129 91.4563737,51.9674754 95.4256261,59.0741402 C99.321661,66.0497141 101.205352,74.2403489 101.205352,83.497491 C101.205352,92.373191 99.740118,100.412307 96.7384238,107.551588 C94.3374221,113.262172 91.2536231,118.109158 87.4551709,122.010031 Z M51.0774754,105.555706 C51.0777904,105.558382 51.0780846,105.560985 51.0783587,105.563513 C51.077664,105.557105 51.0769474,105.548747 51.0762473,105.538467 Z M51.0762473,105.538467 C51.0735483,105.498833 51.0710952,105.430631 51.0710952,105.335484 C51.0710952,103.059825 51.4567391,100.981682 52.2251337,99.0285234 C52.9169499,97.2700173 53.7140556,96.0575617 54.5837475,95.2598621 C54.7590412,95.0990791 54.8639136,95.0225298 54.9026403,94.9981727 C54.7791401,95.0445819 54.6304373,95.0756993 54.5050909,95.0788854 L54.2255756,84.0824373 L43.415663,82.0463161 L40.0368515,99.9846674 C39.9015071,100.673442 39.7248519,101.295404 39.5383768,101.769072 C39.4209458,102.067361 39.3265263,102.244127 39.2738871,102.317183 C39.3942278,102.150167 39.6908523,101.848942 40.261536,101.471785 C41.3616868,100.744711 42.7939538,100.282437 44.3630989,100.282437 C46.3359485,100.282437 48.5097293,101.291435 49.88368,103.051606 C50.4979938,103.838605 50.8501216,104.60048 51.0165586,105.254364 C51.0522705,105.394665 51.0702815,105.494572 51.0774754,105.555706 Z M115.089137,84.4233253 C115.492069,83.9481364 115.903339,83.5036101 116.329146,83.0863888 C118.746265,80.7180029 121.526862,79.1268817 125.454574,79.1268817 C129.443099,79.1268817 133.213401,81.0784394 135.456209,84.5611852 C136.953086,86.8856133 137.459085,89.2428529 137.459085,91.6867384 C137.459085,94.1477814 136.995352,97.4712981 136.083588,102.196186 C135.69304,104.344041 135.4049,106.13343 135.219701,107.54568 C135.063463,108.737092 134.993466,109.569775 134.993466,109.917563 C134.993466,109.932543 134.993489,109.947446 134.993535,109.962272 C135.782758,109.780818 136.481005,109.447472 137.168005,108.943702 C139.29395,107.384766 141.362657,105.307563 143.361831,102.676929 L143.462798,102.54407 L143.567748,102.414336 C143.231514,102.829972 143.010585,103.238537 142.891084,103.579441 C142.900104,103.630019 142.911187,103.687021 142.924726,103.750622 C143.044588,104.313656 143.279811,104.949827 143.67708,105.628417 C145.119429,108.092145 148.014052,109.901075 151.297915,109.901075 C153.982159,109.901075 156.17991,108.684483 157.409789,107.152649 L148.832296,100.26595 L157.491455,107.049677 C154.38884,111.010044 151.842203,113.950734 149.701273,115.987017 C146.177331,119.338713 142.424842,121.405018 137.78267,121.405018 C133.374429,121.405018 129.260714,119.385842 126.696487,115.609939 C124.821556,112.849045 124.134412,109.813498 124.134412,106.505376 C124.134412,103.97686 124.656508,100.341122 125.703139,95.0274019 C124.624111,97.0913765 123.572371,99.5263895 122.56493,102.329282 L94.1168892,181.477172 L101.252952,97.6752863 C101.525448,94.4752484 101.874446,91.7181139 102.314568,89.368776 C102.71264,87.2438972 103.23333,84.8119194 103.877327,82.0618348 L103.918281,81.8929634 C104.331263,80.2469649 104.632496,78.9320099 104.818578,77.9784514 C104.893085,77.5966451 104.943344,77.3019333 104.969421,77.1115702 C104.963625,77.1849785 104.957374,77.3100831 104.957374,77.5505376 C104.957374,78.3866953 105.110513,79.3471996 105.541843,80.4408423 C106.216867,82.1523747 107.433856,83.7222831 109.121483,84.8483365 C110.244503,85.5976614 111.252699,85.9645951 112.162367,86.1380143 C112.271942,86.1589038 112.361958,86.1740296 112.434359,86.184885 C112.802475,86.0789922 113.255665,85.8699088 113.745481,85.5255463 C114.292845,85.1407256 114.730252,84.6803815 115.031663,84.2167964 C115.198742,83.9598214 115.272858,83.7924096 115.272109,83.7944763 C115.210137,84.0036856 115.149147,84.2133016 115.089137,84.4233253 Z M136.083588,102.196186 C136.079747,102.216089 136.075898,102.236016 136.072042,102.255968 L125.271935,100.168459 L136.093901,102.139516 C136.090455,102.158434 136.087017,102.177324 136.083588,102.196186 Z M134.993535,109.962272 C134.996081,110.791085 135.069396,111.37781 135.166234,111.717781 C135.160774,111.698611 135.06577,111.510716 134.850538,111.250006 C134.481075,110.802476 133.976782,110.433124 133.477063,110.228734 C133.324699,110.166415 133.204903,110.131725 133.128074,110.117255 C133.193442,110.124261 133.277028,110.129032 133.399347,110.129032 C133.978526,110.129032 134.503562,110.074924 134.993535,109.962272 Z M133.128074,110.117255 C133.125143,110.116702 133.122274,110.11618 133.119468,110.115686 C133.126263,110.116882 133.135687,110.11816 133.147756,110.119435 Z M142.891084,103.579441 C142.874895,103.625621 142.860568,103.67056 142.848068,103.714107 C142.837363,103.7514 142.85396,103.617739 142.854819,103.312641 C142.860793,103.383226 142.870646,103.464846 142.891084,103.579441 Z M125.703139,95.0274019 C125.824183,94.4128616 125.952244,93.7758777 126.087324,93.1155674 C127.287343,87.1758176 127.8785,83.1309707 127.8785,81.5476703 C127.8785,81.4932912 127.87791,81.4838411 127.882933,81.521376 C127.901373,81.6591801 127.939896,81.8373982 128.007429,82.0536909 C128.237788,82.7914817 128.685256,83.5876672 129.366431,84.3148801 C130.098669,85.0966056 130.975834,85.6584724 131.851751,85.9701756 C132.369402,86.1543864 132.738992,86.2107527 132.94275,86.2107527 C133.186677,86.2107527 133.31572,86.1878749 133.309443,86.1900009 C133.046955,86.2789008 132.647348,86.4732007 132.12945,86.7951426 C131.117616,87.4241307 129.65247,88.920292 127.935069,91.3351073 C127.182052,92.393915 126.436297,93.6250102 125.703139,95.0274019 Z M115.089137,84.4233253 C113.263657,90.8122186 112.346297,97.578374 112.346297,104.750538 C112.346297,107.222301 112.444958,109.288118 112.630071,110.920107 C112.776122,112.207717 112.96007,113.086148 113.101688,113.476315 C113.054764,113.347034 112.955393,113.144274 112.780338,112.878872 C112.48382,112.429322 112.075418,111.973964 111.553038,111.557003 C110.360161,110.604855 108.917197,110.129032 107.647324,110.129032 C107.304546,110.129032 106.790011,110.213344 106.130154,110.468805 C105.089736,110.871599 104.091352,111.57979 103.309556,112.529546 C103.026828,112.873014 102.84232,113.157538 102.721175,113.386538 C102.698084,113.430189 102.712747,113.397024 102.750859,113.295703 C102.934503,112.807489 103.156643,112.021137 103.386158,110.974201 L103.411666,110.860719 C104.462283,106.299455 105.853172,101.938758 107.586372,97.7849359 C109.321212,93.627185 111.079884,90.1654858 112.928411,87.3522556 C113.645997,86.2601788 114.353677,85.2906742 115.089137,84.4233253 Z M122.16559,67.1506753 C125.666542,65.2546722 129.251809,64.2107527 132.94275,64.2107527 C143.141685,64.2107527 149.8785,71.4028761 149.8785,81.5476703 C149.8785,83.2829299 149.693141,85.4227518 149.323943,88.0402789 C149.96595,87.9484764 150.624475,87.9010753 151.297915,87.9010753 C156.164653,87.9010753 160.307293,90.4899262 162.662839,94.5135185 C164.229953,97.1903621 164.854854,100.125756 164.854854,103.288172 C164.854854,108.148979 163.618351,112.526194 160.795863,116.095815 C157.581196,120.307305 154.045797,123.848396 150.177514,126.684972 C145.263924,130.288062 139.558107,132.129032 133.399347,132.129032 C128.126691,132.129032 123.368443,130.506387 119.713748,127.178183 C116.574313,130.577847 112.291504,132.129032 107.647324,132.129032 C100.40831,132.129032 94.8602863,127.700631 92.4218026,120.982467 C90.9436768,116.910144 90.3462974,111.643537 90.3462974,104.750538 C90.3462974,95.2599423 91.6201515,86.1813737 94.1623628,77.5996817 C95.3671268,73.4552982 97.6447767,69.9521674 101.092571,67.5282171 C104.415302,65.1921918 108.330872,64.2107527 112.669882,64.2107527 C115.872718,64.2107527 118.61177,64.7329261 121.332158,66.5480793 C121.622439,66.7417671 121.90015,66.9427892 122.16559,67.1506753 Z M134.231864,100.318981 C134.227677,100.321992 134.224048,100.324681 134.220962,100.327044 C134.229692,100.32036 134.239217,100.31288 134.249517,100.304602 Z M170.916279,133.875278 L167.120921,137.032578 L170.289347,115.384171 L179.770509,108.583487 L186.181861,117.521864 L179.597043,108.710498 C180.732782,107.861749 182.153722,106.814804 183.866628,105.56472 L181.02979,125.250398 L177.748881,127.95699 C175.218291,130.044606 172.939772,132.020418 170.916279,133.875278 Z M170.289347,115.384171 L171.279769,108.617065 C171.584947,106.531923 171.874924,104.560421 172.149716,102.702446 C172.427818,100.822101 172.690936,99.087123 172.939206,97.4968287 C173.321068,95.0508027 173.656458,92.8816429 173.944566,90.9955205 L172.945877,91.2199806 L174.245132,89.016995 C174.730366,85.8029849 175.040559,83.6386577 175.170016,82.5675602 L175.187721,82.4285122 C175.174018,82.5309192 175.171355,82.5621943 175.172374,82.5415163 C175.178132,82.4247276 175.181861,82.253549 175.181861,82.0351254 C175.181861,82.420606 175.255066,82.9676817 175.506839,83.7228517 C175.70439,84.3153867 175.978069,84.9066353 176.332273,85.4780881 L190.133489,62.0770755 L183.866628,105.56472 C185.919753,104.066343 188.392344,102.276117 191.296053,100.185527 C190.814967,100.531867 190.288852,101.122417 189.875649,101.941658 C189.583838,102.52022 189.427398,103.013302 189.354568,103.413173 C189.336678,103.511399 189.336284,103.506605 189.33633,103.411506 C189.33946,103.936295 189.522244,104.743413 190.062134,105.704044 C191.463876,108.198175 194.37936,110.096057 197.779403,110.096057 C198.85658,110.096057 199.808227,109.907042 200.626915,109.603035 C201.104747,109.4256 201.458006,109.240881 201.718942,109.069452 L195.67906,99.8759857 L201.936499,108.922779 C197.892389,111.719987 193.644647,114.967904 189.198609,118.666493 L170.916279,133.875278 C168.497446,136.092532 166.443023,138.136956 164.758053,139.992928 C166.554173,134.433952 168.144802,127.710885 169.496534,119.84985 L170.260916,115.404563 L170.289347,115.384171 Z M173.944566,90.9955205 C174.051252,90.2970978 174.151454,89.6374849 174.245132,89.016995 L176.332273,85.4780881 C176.876828,86.3566423 177.611713,87.1884069 178.552904,87.906122 C179.608525,88.7110974 180.613424,89.1383259 181.512915,89.3412026 C181.838616,89.4146633 181.980571,89.427957 181.981176,89.427957 C181.226979,89.427957 180.685143,89.4805439 180.375259,89.5501919 L173.944566,90.9955205 Z M190.363063,128.05989 C187.99299,140.38296 184.952163,150.423274 181.144132,158.2566 C175.730086,169.393584 167.557501,176 156.959708,176 C150.91891,176 145.493693,173.801877 141.411435,169.511815 C137.424579,165.322013 135.457996,159.909254 135.457996,153.886022 C135.457996,146.963652 137.846856,140.01861 142.322111,133.065328 C143.671522,130.968724 145.333973,128.787696 147.313435,126.509971 C146.30603,125.597056 145.365914,124.577285 144.500714,123.453897 C140.655089,118.460683 138.836808,112.269926 138.836808,105.237993 C138.836808,98.3793615 140.338395,91.8154299 143.317175,85.6701012 C146.311197,79.4933262 150.411806,74.382248 155.581827,70.4782562 C161.181448,66.2498645 167.459432,64.0157706 174.127722,64.0157706 C177.8497,64.0157706 181.261276,64.9126643 184.056407,67.5136056 C186.920471,67.7632952 189.504982,68.5910624 191.893114,70.4121576 C195.808098,73.3975708 197.181861,77.5180418 197.181861,82.0351254 C197.181861,83.2286466 197.131904,84.2741697 197.004169,85.2641578 C196.920814,85.9475482 196.790715,86.9057608 196.613061,88.1450029 C196.995508,88.1126437 197.384165,88.0960573 197.779403,88.0960573 C202.76232,88.0960573 206.925821,90.806357 209.24076,94.9253468 C210.698492,97.5191025 211.336341,100.379125 211.336341,103.385663 C211.336341,106.45813 210.826941,109.254959 209.518564,111.849023 C208.249144,114.365849 206.377654,116.454641 204.115431,118.064516 C198.928432,121.79915 195.137873,124.561214 192.766678,126.33323 L192.593212,126.46024 L190.363063,128.05989 Z M172.258001,105.55338 C172.258328,105.557172 172.258654,105.560551 172.258975,105.563513 C172.258104,105.555477 172.257029,105.546692 172.255732,105.537153 Z M157.964219,144.543369 C160.922484,144.543369 164.012786,146.231312 165.624969,149.144014 C166.211812,150.204253 166.407281,151.103178 166.407281,151.741219 C166.407281,151.723248 166.447329,151.5057 166.590204,151.088482 C166.840669,150.357084 167.284971,149.431677 167.94082,148.340228 C169.390769,145.927258 172.105439,142.820242 176.074509,139.188253 L168.648569,131.073118 L157.877695,128.839674 C156.284581,136.522528 154.674909,141.947754 153.252753,144.839702 C152.688127,145.987865 152.261769,146.673484 152.146149,146.804564 C152.41246,146.502642 152.825569,146.14098 153.473287,145.751407 C154.693936,145.017244 156.221622,144.543369 157.964219,144.543369 Z M241.287891,87.9567551 C245.619974,88.3526967 249.270305,90.8327856 251.425129,94.5135185 C252.992243,97.1903621 253.617144,100.125756 253.617144,103.288172 C253.617144,108.166196 252.371866,112.557197 249.5281,116.133717 C246.383029,120.189912 242.18713,123.738479 237.005678,126.852588 C231.195167,130.344768 224.839796,132.129032 218.143591,132.129032 C208.907194,132.129032 201.046149,129.19429 195.296005,123.161363 C189.678502,117.267601 186.962041,109.467457 186.962041,100.363441 C186.962041,94.3236524 188.174311,88.5890033 190.603799,83.2674776 C193.139371,77.7135853 196.790709,73.1375387 201.501684,69.7195231 C206.526127,66.074072 212.33568,64.2107527 218.600187,64.2107527 C225.041133,64.2107527 230.776787,66.4822985 235.066798,70.9968228 C239.267566,75.4174329 241.289048,81.1826526 241.289048,87.6896057 C241.289048,87.7787646 241.288662,87.8678147 241.287891,87.9567551 Z M217.04776,95.7648746 C215.022453,95.7648746 212.809678,94.8116554 211.290688,93.0355616 C210.109008,91.6538705 209.60921,90.103956 209.60921,88.8594982 C209.60921,87.9700355 210.021618,87.1283212 210.241232,86.9352397 C209.593305,87.5048889 208.320023,88.1187832 206.310417,88.6278671 L209.011668,99.2910394 L220.011668,99.2910394 L220.011668,99.0960573 C220.011668,96.9080662 220.367568,95.358449 220.956342,94.2985141 C221.031841,94.1625988 221.071076,94.1040921 221.058941,94.1188166 C220.930709,94.2744118 220.729115,94.468424 220.443206,94.6784244 C219.529765,95.3493448 218.294198,95.7648746 217.04776,95.7648746 Z M300.676022,116.122194 C297.633366,120.06903 294.251305,123.492459 290.531999,126.369173 C285.735332,130.079177 280.488899,132.129032 274.944151,132.129032 C270.606104,132.129032 266.758855,130.916465 263.475427,128.698649 C263.439592,128.720809 263.40373,128.742836 263.36784,128.76473 C259.662086,131.025421 255.440957,132.129032 250.927194,132.129032 C243.877343,132.129032 237.693196,129.140021 233.215171,123.633171 C229.111238,118.58636 227.142502,112.280979 227.142502,105.140502 C227.142502,98.3619893 228.517071,91.9525975 231.272706,86.0255867 C234.064758,80.0202456 237.997639,74.9908054 243.01764,71.0726777 C245.771932,68.9229438 248.737815,67.222836 251.885081,65.9865532 C253.246576,55.7077584 255.362326,46.5957324 258.26247,38.6383367 C262.923923,25.8482711 270.435743,18 281.427816,18 C287.861951,18 293.337898,21.1887483 297.034267,26.5887956 C300.224246,31.2490545 301.559739,37.1521683 301.559739,44.3060932 C301.559739,52.9238416 299.65651,62.6028736 295.940679,73.4218717 C294.295562,78.2117883 292.399938,83.0484968 290.254655,87.9324983 C290.565986,87.911655 290.880815,87.9010753 291.198973,87.9010753 C296.065711,87.9010753 300.208351,90.4899262 302.563897,94.5135185 C304.131011,97.1903621 304.755912,100.125756 304.755912,103.288172 C304.755912,108.160959 303.513307,112.547768 300.676022,116.122194 Z M280.423304,49.5541219 C276.568816,49.5541219 273.7725,47.6827477 272.140016,45.3215146 C271.796852,44.8251593 271.565513,44.3893226 271.399472,43.9974786 C271.326657,43.825639 271.289658,43.7190989 271.273831,43.6645103 C271.33309,43.8689031 271.432327,44.8305467 271.432327,46.353405 C271.432327,54.2110209 268.379659,65.6174608 262.099058,80.224948 L272.204574,84.5698925 L283.192326,85.0888248 C283.546022,77.5997639 284.119617,70.4398387 284.912014,63.6095711 C285.678532,57.0023684 286.58359,51.7550123 287.589673,47.9392066 C287.807988,47.1111943 288.013693,46.4285329 288.198129,45.9038927 C288.320307,45.5563523 288.405453,45.354515 288.418294,45.3301644 C288.192296,45.7587393 287.820359,46.2877361 287.124369,46.9476586 C285.516733,48.471985 283.234165,49.5541219 280.423304,49.5541219 Z M260.423293,104.435069 C260.511161,104.645516 260.567254,104.827809 260.59955,104.978828 C260.58622,104.9165 260.567008,104.723013 260.560048,104.411347 L261.97682,104.165591 L260.583279,103.264299 C260.706947,101.15246 261.274634,99.3225257 262.301652,97.6253136 C263.230948,96.0895934 263.981945,95.4455623 264.693238,95.2108493 L261.246266,84.7648746 L250.25288,84.3834881 C250.127029,88.0111076 250.063628,90.6508768 250.063628,92.3691756 C250.063628,95.5163959 250.205798,98.5017813 250.494528,101.32812 C250.406617,101.432306 250.361129,101.483205 250.369112,101.476251 C250.408615,101.441848 250.451829,101.406488 250.49886,101.370402 C250.664246,102.980283 250.877244,104.538509 251.138666,106.045597 L260.423293,104.435069 Z M298.313294,110.652182 C298.309583,110.654952 298.306534,110.657338 298.304145,110.659319 C298.310967,110.653663 298.318207,110.647487 298.325857,110.640786 Z M298.325857,110.640786 C298.393019,110.58195 298.491814,110.482592 298.617426,110.33863 C299.377721,109.467268 300.197274,107.674495 300.852902,104.874738 L302.289714,98.7390648 C302.047708,101.294963 301.925016,104.046901 301.925016,106.992832 C301.925016,109.02328 302.261522,110.327921 302.778833,111.132109 C302.818165,111.193252 302.819009,111.194323 302.772233,111.146682 C302.633158,111.005033 302.436063,110.847695 302.185642,110.696745 C301.56825,110.324589 300.846572,110.129032 300.239577,110.129032 C299.591133,110.129032 298.966014,110.290349 298.506939,110.535399 C298.405024,110.589801 298.340869,110.6316 298.313294,110.652182 Z M302.289714,98.7390648 L322.563161,12.1645499 L322.563161,86.1412376 C322.603101,86.1492981 322.642784,86.1569364 322.682213,86.1641713 C322.760012,86.1784468 322.826984,86.1891191 322.884004,86.1969685 C322.975208,86.1812295 323.087063,86.1563052 323.219521,86.1191669 C323.913843,85.9244958 324.690777,85.5323947 325.44712,84.8962131 C326.073933,84.3689835 326.499351,83.8239815 326.758143,83.3390763 C326.812356,83.2374963 326.845159,83.164965 326.861664,83.1222089 C326.842599,83.1807674 326.822413,83.251146 326.794155,83.3641477 C325.443201,88.712524 324.038182,93.3924898 322.563161,97.4239989 L322.563161,107.382796 C322.563161,108.21745 322.597223,108.966323 322.660487,109.626455 C323.060936,109.448938 323.444443,109.2224 323.824508,108.943702 C325.950453,107.384766 328.019159,105.307563 330.018334,102.676929 L330.119301,102.54407 L330.224251,102.414336 C329.888017,102.829972 329.667087,103.238537 329.547586,103.579441 C329.556607,103.630019 329.567689,103.687021 329.581229,103.750622 C329.701091,104.313656 329.936314,104.949827 330.333583,105.628417 C331.775932,108.092145 334.670555,109.901075 337.954418,109.901075 C340.638662,109.901075 342.836412,108.684483 344.066292,107.152649 L335.488799,100.26595 L344.147958,107.049677 C341.045342,111.010044 338.498706,113.950734 336.357776,115.987017 C332.833834,119.338713 329.081345,121.405018 324.439172,121.405018 C320.031169,121.405018 316.085148,119.298662 313.567799,115.771339 C313.269438,115.353273 312.997881,114.926549 312.751835,114.491797 C312.663887,114.570065 312.575257,114.647349 312.485905,114.723661 C310.104256,116.757752 307.295769,118.090323 303.801027,118.090323 C299.194915,118.090323 294.981519,115.700676 292.7056,111.570122 C291.28619,108.994042 290.883323,106.456486 290.883323,103.385663 C290.883323,100.242937 291.548681,95.2706553 292.897798,87.7114283 C293.300119,85.5638666 293.824001,83.2151024 294.468948,80.6569254 C294.764079,79.3353694 294.981994,78.3036371 295.119135,77.5848981 C295.175367,77.2901931 295.212659,77.0757711 295.229261,76.9638241 C295.225906,76.9894994 295.221547,77.0262635 295.215328,77.0878267 C295.19169,77.3218301 295.175327,77.5854601 295.175327,77.9405018 C295.175327,78.8629375 295.357119,79.8483616 295.746991,80.8192786 L305.170815,83.2050179 L295.876048,81.123065 C296.357497,82.1967135 297.098819,83.2424987 298.135989,84.154366 C299.336428,85.2097767 300.5577,85.7862009 301.696918,86.0653315 C301.929571,86.122336 302.117543,86.1583779 302.266761,86.1803206 C302.787691,86.0321559 303.426768,85.7280442 304.125362,85.1894047 C304.693347,84.7514691 305.090795,84.2940106 305.338562,83.8877951 C305.388348,83.8061706 305.418085,83.7497479 305.431923,83.7197986 C305.407644,83.779976 305.384211,83.8449288 305.36508,83.9059485 C304.120997,87.9481864 303.240843,91.72098 302.716714,95.2181858 C302.547518,96.3471273 302.405063,97.5208276 302.289714,98.7390648 Z M322.563161,86.1412376 L322.563161,97.4239989 C322.327769,98.0673691 322.090595,98.6942248 321.851573,99.304647 C320.00669,104.016164 318.188827,107.695452 316.226379,110.488892 C315.130254,112.049168 314.010944,113.371283 312.751835,114.491797 C311.367741,112.04617 310.790915,109.346533 310.790915,106.505376 C310.790915,103.489724 311.686539,98.0942775 313.580684,88.8505559 C314.316335,85.3320974 314.862924,82.5233731 315.217347,80.4498705 C315.381991,79.4866419 315.500916,78.7062418 315.573396,78.1274523 C315.602404,77.8958085 315.62165,77.7147165 315.631597,77.5928167 C315.632807,77.5779777 315.630834,77.6190187 315.630834,77.7455197 C315.630834,80.1552958 316.802832,83.0052686 319.79847,84.9596617 C320.845034,85.642454 321.756552,85.9784042 322.563161,86.1412354 Z M322.660487,109.626455 C322.709468,110.137548 322.775953,110.595446 322.857688,110.998775 C322.979538,111.600059 323.104562,111.952034 323.175993,112.077437 C322.555622,110.988323 321.021975,110.129032 320.055849,110.129032 C321.051832,110.129032 321.887706,109.969024 322.660487,109.626455 Z M329.547586,103.579441 C329.531398,103.625621 329.517071,103.67056 329.504571,103.714107 C329.493866,103.7514 329.510463,103.617739 329.511322,103.312641 C329.517295,103.383226 329.527149,103.464846 329.547586,103.579441 Z M322.884004,86.1969685 C322.942052,86.2049595 322.989785,86.210025 323.028128,86.2129881 C322.997634,86.2117986 322.952816,86.2107527 322.886745,86.2107527 C322.823023,86.2107527 322.788578,86.2120841 322.784915,86.2117972 C322.817433,86.2076388 322.849216,86.2029718 322.884004,86.1969685 Z M323.028128,86.2129881 C323.029191,86.2130702 323.030246,86.2131507 323.031294,86.2132296 C323.029079,86.2130629 323.024942,86.2128496 323.018934,86.2126184 Z M322.784915,86.2117972 C322.784176,86.2117393 322.78469,86.2116155 322.786471,86.2114015 C322.787197,86.2113142 322.787926,86.2112262 322.788656,86.2111374 Z M294.468948,80.6569254 C294.48166,80.6065046 294.494419,80.5560024 294.507225,80.5054188 L295.746991,80.8192786 C295.787728,80.9207286 295.830737,81.0220202 295.876048,81.123065 L294.436795,80.8006841 C294.447613,80.7523901 294.458331,80.7044702 294.468948,80.6569254 Z M302.266761,86.1803206 C302.422371,86.2032032 302.535835,86.2107527 302.613877,86.2107527 C302.383895,86.2107527 302.203978,86.2193334 302.077917,86.2322929 C302.045206,86.2356557 302.062898,86.2326974 302.13415,86.2153487 C302.177443,86.2048076 302.221659,86.1931486 302.266761,86.1803206 Z M305.431923,83.7197986 C305.433207,83.7170211 305.434353,83.7144713 305.435367,83.7121502 C305.432327,83.7191135 305.428972,83.727143 305.425383,83.7360321 Z M312.26819,67.29775 C312.40023,67.4057453 312.531577,67.5171386 312.662237,67.6320139 C315.766159,70.3609435 317.175327,74.0777124 317.175327,77.9405018 C317.175327,79.6788115 316.842394,81.4236707 315.904835,85.6093518 L315.871658,85.7574703 L315.834406,85.904617 C315.279336,88.0971803 314.841924,90.0526352 314.538699,91.6690025 C313.435543,97.8519936 312.883323,101.978785 312.883323,103.385663 C312.883323,103.488924 312.885378,103.563556 312.887845,103.606163 C312.883062,103.554286 312.875573,103.492754 312.861409,103.403541 C312.753817,102.725843 312.514413,101.933535 311.974238,100.953175 C310.307117,97.9275256 307.067783,96.0903226 303.801027,96.0903226 C302.296715,96.0903226 300.956863,96.4268857 299.813321,96.9694732 C299.126316,97.2954431 298.606214,97.646129 298.198171,97.9946255 C298.022784,98.1444179 297.930733,98.2380101 297.895292,98.2792862 C297.963846,98.1994461 298.077258,98.0520471 298.224616,97.8422906 C299.001759,96.7360694 300.106082,94.5009603 301.366069,91.2831667 C302.734147,87.7893268 304.108407,83.3434492 305.457015,78.0045191 C306.458943,73.9933595 308.273137,70.5940652 311.285767,68.0600593 C311.606433,67.7903384 311.934002,67.5363991 312.26819,67.29775 Z M312.26819,67.29775 C315.325762,65.1142915 318.93748,64.2107527 322.886745,64.2107527 C326.243107,64.2107527 329.046533,64.7251566 331.819452,66.5342451 C335.910926,69.2035761 337.630834,73.3859131 337.630834,77.7455197 C337.630834,79.8133431 337.169006,83.0116618 336.198122,88.0109383 C336.771065,87.9383948 337.35687,87.9010753 337.954418,87.9010753 C342.821156,87.9010753 346.963796,90.4899262 349.319342,94.5135185 C350.886456,97.1903621 351.511357,100.125756 351.511357,103.288172 C351.511357,108.148979 350.274854,112.526194 347.452365,116.095815 C344.237699,120.307305 340.7023,123.848396 336.834017,126.684972 C331.920427,130.288062 326.21461,132.129032 320.055849,132.129032 C316.326465,132.129032 312.892427,131.150305 309.996852,129.296194 C307.069504,131.121965 303.79173,132.129032 300.239577,132.129032 C293.567259,132.129032 287.947909,128.741766 284.276394,123.0342 C281.323557,118.443856 279.925016,113.021683 279.925016,106.992832 C279.925016,101.593751 280.266279,96.5842408 280.959702,91.9574414 C281.653168,87.3303533 282.782017,82.4915246 284.351659,77.3917975 C285.580862,73.4549639 287.592713,70.156522 290.692,67.7668677 C294.04489,65.1816769 298.032515,64.2107527 302.613877,64.2107527 C306.210597,64.2107527 309.402685,64.9540571 312.26819,67.29775 Z M351.572199,84.5418159 C352.120551,83.9071546 352.684193,83.324673 353.275665,82.7891426 C355.707892,80.5869545 358.54525,79.1268817 362.245333,79.1268817 C366.233858,79.1268817 370.00416,81.0784394 372.246968,84.5611852 C372.876618,85.5389382 373.330942,86.5224968 373.646029,87.5158679 L374.573429,87.6896057 L373.651834,87.5342204 C374.081519,88.8964554 374.249844,90.2771851 374.249844,91.6867384 C374.249844,92.5940889 374.172462,93.7093549 374.019265,95.3448687 L373.986359,95.6961599 C374.110942,95.6383545 374.238543,95.5711807 374.371039,95.4938545 C375.688598,94.7249098 376.798945,93.829081 377.688567,92.8457939 C377.256507,93.3301182 376.956152,93.8645405 376.799285,94.3501996 C376.762906,94.4628297 376.73974,94.5553107 376.726571,94.6252737 C376.735798,94.7959327 376.766299,95.0245338 376.832852,95.3134733 C376.974998,95.9306049 377.237846,96.5978376 377.651468,97.2749208 C379.134519,99.7026213 382.001048,101.419355 385.166459,101.419355 C387.653311,101.419355 389.587738,100.425016 390.728979,99.2066443 C386.135692,104.110369 381.742807,106.976344 376.125856,106.976344 C371.803824,106.976344 367.761718,104.962557 365.271204,101.240187 C363.72811,98.9338482 363.037896,96.4628182 362.879433,93.8178595 C361.569182,96.1191724 360.293416,98.9581451 359.081731,102.329282 L330.633691,181.477172 L337.769753,97.6752863 C338.042249,94.4752484 338.391248,91.7181139 338.83137,89.368776 C339.229442,87.2438972 339.750131,84.8119194 340.394128,82.0618348 L340.435083,81.8929634 C340.848064,80.2469649 341.149298,78.9320099 341.335379,77.9784514 C341.409887,77.5966451 341.460146,77.3019333 341.486223,77.1115702 C341.480426,77.1849785 341.474175,77.3100831 341.474175,77.5505376 C341.474175,78.3866953 341.627315,79.3471996 342.058644,80.4408423 C342.733668,82.1523747 343.950657,83.7222831 345.638284,84.8483365 C346.761305,85.5976614 347.769501,85.9645951 348.679168,86.1380143 C348.788744,86.1589038 348.878759,86.1740296 348.951161,86.184885 C349.319277,86.0789922 349.772466,85.8699088 350.262283,85.5255463 C350.809647,85.1407256 351.247053,84.6803815 351.548465,84.2167964 C351.715544,83.9598214 351.78966,83.7924096 351.788911,83.7944763 C351.715289,84.043015 351.643051,84.2921276 351.572199,84.5418159 Z M373.646029,87.5158679 C373.647969,87.521985 373.649904,87.5281025 373.651834,87.5342204 L363.726524,85.8607651 C363.98142,84.3489691 364.168829,83.1411136 364.287015,82.2578983 C364.33803,81.8766576 364.373384,81.5761034 364.392952,81.3695159 C364.397916,81.3171165 364.40077,81.2824754 364.401749,81.269053 C364.398297,81.3311401 364.395648,81.4112589 364.395333,81.524824 C364.395303,81.4913956 364.395774,81.491782 364.399734,81.521376 C364.418174,81.6591801 364.456697,81.8373982 364.52423,82.0536909 C364.75459,82.7914817 365.202057,83.5876672 365.883233,84.3148801 C366.61547,85.0966056 367.492635,85.6584724 368.368553,85.9701756 C368.886204,86.1543864 369.255793,86.2107527 369.459552,86.2107527 C369.703478,86.2107527 369.832522,86.1878749 369.826244,86.1900009 C369.563757,86.2789008 369.16415,86.4732007 368.646252,86.7951426 C367.634418,87.4241307 366.169271,88.920292 364.451871,91.3351073 C363.923536,92.0779924 363.398776,92.9056905 362.879433,93.8178595 C362.854652,93.4042244 362.842875,92.9863356 362.842875,92.5641577 C362.842875,90.9496761 363.129058,89.0401431 363.761519,85.6641165 L373.646029,87.5158679 Z M373.986359,95.6961599 L373.972146,95.8478957 L373.879116,96.3444857 C373.821062,96.6543699 373.793248,96.9513097 373.793248,97.2437276 C373.793248,97.5414765 373.81025,97.6503843 373.79421,97.6049258 C373.699939,97.3377659 373.510438,97.0263351 373.263448,96.7674466 C372.895648,96.3819284 372.465161,96.1071959 372.106196,95.9786606 C372.043593,95.9562443 372.02645,95.9519783 372.061462,95.9573896 C372.198042,95.9784988 372.396193,95.9928315 372.655725,95.9928315 C373.119524,95.9928315 373.532945,95.9065413 373.986359,95.6961599 Z M376.726571,94.6252737 C376.723458,94.6418108 376.720903,94.6570898 376.718865,94.6710795 C376.721215,94.6387994 376.723398,94.5896173 376.723398,94.5139785 C376.723398,94.5478633 376.72439,94.5849511 376.726571,94.6252737 Z M376.718865,94.6710795 C376.718701,94.6722007 376.718541,94.6733137 376.718384,94.6744184 C376.718699,94.6722031 376.719116,94.6679079 376.719576,94.6615327 Z M364.401749,81.269053 C364.401899,81.2669881 364.402006,81.2654253 364.402068,81.2643773 C364.401889,81.2673795 364.401711,81.2704467 364.401534,81.2735809 Z M351.572199,84.5418159 C349.769155,90.8958619 348.863099,97.6226969 348.863099,104.750538 C348.863099,107.222301 348.96176,109.288118 349.146873,110.920107 C349.292923,112.207717 349.476872,113.086148 349.61849,113.476315 C349.571565,113.347034 349.472194,113.144274 349.297139,112.878872 C349.000622,112.429322 348.592219,111.973964 348.069839,111.557003 C346.876962,110.604855 345.433998,110.129032 344.164126,110.129032 C343.821347,110.129032 343.306812,110.213344 342.646956,110.468805 C341.606537,110.871599 340.608153,111.57979 339.826358,112.529546 C339.54363,112.873014 339.359121,113.157538 339.237977,113.386538 C339.214885,113.430189 339.229549,113.397024 339.267661,113.295703 C339.451304,112.807489 339.673444,112.021137 339.90296,110.974201 L339.928468,110.860719 C340.973065,106.325589 342.338489,101.989847 344.026969,97.8588969 C345.76179,93.614572 347.58241,90.0678823 349.563372,87.1761543 C350.225415,86.209731 350.886865,85.3350206 351.572199,84.5418159 Z M358.682392,67.1506753 C362.183344,65.2546722 365.768611,64.2107527 369.459552,64.2107527 C378.946103,64.2107527 385.437294,70.4332434 386.297814,79.4665277 C390.56464,79.8246188 394.221764,82.198583 396.425539,85.8060828 C398.045717,88.4582554 398.723398,91.4004137 398.723398,94.5139785 C398.723398,99.448664 397.272325,103.94118 394.055401,107.546854 C391.585813,110.277509 388.708593,112.598852 385.460168,114.494676 C381.508895,116.800691 377.178393,117.992832 372.655725,117.992832 C368.540195,117.992832 364.746873,117.102852 361.501432,115.226841 C361.460055,115.399688 361.419273,115.573036 361.379088,115.746884 C360.366587,120.343606 359.075488,123.761474 356.811944,126.511315 C353.631071,130.37556 349.101847,132.129032 344.164126,132.129032 C336.925111,132.129032 331.377088,127.700631 328.938604,120.982467 C327.460478,116.910144 326.863099,111.643537 326.863099,104.750538 C326.863099,95.2599423 328.136953,86.1813737 330.679164,77.5996817 C331.883928,73.4552982 334.161578,69.9521674 337.609372,67.5282171 C340.932103,65.1921918 344.847673,64.2107527 349.186683,64.2107527 C352.389519,64.2107527 355.128572,64.7329261 357.848959,66.5480793 C358.139241,66.7417671 358.416952,66.9427892 358.682392,67.1506753 Z M425.752733,87.9567551 C430.084816,88.3526967 433.735146,90.8327856 435.88997,94.5135185 C437.457084,97.1903621 438.081985,100.125756 438.081985,103.288172 C438.081985,108.166196 436.836707,112.557197 433.992941,116.133717 C430.84787,120.189912 426.651972,123.738479 421.47052,126.852588 C415.660008,130.344768 409.304637,132.129032 402.608432,132.129032 C393.372035,132.129032 385.510991,129.19429 379.760847,123.161363 C374.143344,117.267601 371.426882,109.467457 371.426882,100.363441 C371.426882,94.3236524 372.639152,88.5890033 375.06864,83.2674776 C377.604212,77.7135853 381.25555,73.1375387 385.966525,69.7195231 C390.990969,66.074072 396.800521,64.2107527 403.065028,64.2107527 C409.505975,64.2107527 415.241628,66.4822985 419.53164,70.9968228 C423.732407,75.4174329 425.753889,81.1826526 425.753889,87.6896057 C425.753889,87.7787646 425.753504,87.8678147 425.752733,87.9567551 Z M401.512601,95.7648746 C399.487295,95.7648746 397.274519,94.8116554 395.755529,93.0355616 C394.573849,91.6538705 394.074051,90.103956 394.074051,88.8594982 C394.074051,87.9700355 394.48646,87.1283212 394.706073,86.9352397 C394.058147,87.5048889 392.784864,88.1187832 390.775258,88.6278671 L393.476509,99.2910394 L404.476509,99.2910394 L404.476509,99.0960573 C404.476509,96.9080662 404.83241,95.358449 405.421183,94.2985141 C405.496682,94.1625988 405.535918,94.1040921 405.523783,94.1188166 C405.39555,94.2744118 405.193957,94.468424 404.908047,94.6784244 C403.994607,95.3493448 402.759039,95.7648746 401.512601,95.7648746 Z M438.176567,84.4233253 C438.579499,83.9481364 438.990769,83.5036101 439.416576,83.0863888 C441.833695,80.7180029 444.614292,79.1268817 448.542004,79.1268817 C452.530529,79.1268817 456.300831,81.0784394 458.543639,84.5611852 C459.907282,86.67872 460.448589,88.8234853 460.534147,91.0361818 L460.961419,91.1017921 L460.53432,91.0406717 C460.542562,91.2553751 460.546515,91.4707182 460.546515,91.6867384 C460.546515,93.8290401 460.152339,97.405979 459.340611,103.183078 C458.556625,108.683183 458.172215,112.552571 458.172215,114.499642 C458.172215,114.623022 458.176358,114.708109 458.180784,114.752823 C458.169257,114.679053 458.151372,114.593809 458.119568,114.47837 C457.952888,113.873357 457.60357,113.168942 457.020887,112.463936 C456.230555,111.50769 455.232672,110.811129 454.213061,110.425611 C453.857578,110.291202 453.534411,110.207414 453.250714,110.16225 C453.092063,110.136992 452.984165,110.129032 452.925327,110.129032 C452.942769,110.129032 452.908996,110.131316 452.821021,110.144177 C452.608956,110.175177 452.351856,110.236516 452.053433,110.34061 C451.091235,110.676239 450.103345,111.316799 449.278789,112.253876 C448.547969,113.084424 448.146426,113.89108 447.969243,114.556183 C447.940216,114.665143 447.930947,114.71611 447.931381,114.712209 C447.943669,114.601767 447.952396,114.431955 447.952396,114.207168 C447.952396,109.492502 448.152281,105.171263 448.558337,101.233646 C448.804715,98.8444612 449.102753,96.3713908 449.452306,93.8139176 C448.141268,96.1159302 446.864736,98.9562201 445.65236,102.329282 L417.204319,181.477172 L424.340382,97.6752863 C424.612878,94.4752484 424.961876,91.7181139 425.401998,89.368776 C425.80007,87.2438972 426.32076,84.8119194 426.964757,82.0618348 L427.005711,81.8929634 C427.418693,80.2469649 427.719926,78.9320099 427.906008,77.9784514 C427.980515,77.5966451 428.030774,77.3019333 428.056851,77.1115702 C428.051055,77.1849785 428.044804,77.3100831 428.044804,77.5505376 C428.044804,78.3866953 428.197943,79.3471996 428.629273,80.4408423 C429.304297,82.1523747 430.521286,83.7222831 432.208913,84.8483365 C433.331933,85.5976614 434.340129,85.9645951 435.249797,86.1380143 C435.359372,86.1589038 435.449388,86.1740296 435.521789,86.184885 C435.889905,86.0789922 436.343095,85.8699088 436.832911,85.5255463 C437.380275,85.1407256 437.817682,84.6803815 438.119093,84.2167964 C438.286172,83.9598214 438.360288,83.7924096 438.359539,83.7944763 C438.297567,84.0036856 438.236577,84.2133016 438.176567,84.4233253 Z M460.534147,91.0361818 C460.534205,91.0376784 460.534263,91.0391751 460.53432,91.0406717 L450.072354,89.543502 C450.669954,85.3675728 450.96593,82.5524829 450.96593,81.5476703 C450.96593,81.5838554 450.993523,81.7847001 451.108533,82.1456088 C451.339718,82.8710792 451.778925,83.6430897 452.431024,84.3392608 C453.132747,85.0884101 453.982564,85.6394415 454.843356,85.9520803 C455.157435,86.0661535 455.445751,86.1388799 455.701199,86.1788775 C455.853494,86.2027234 455.963119,86.2107527 456.03018,86.2107527 C456.274107,86.2107527 456.40315,86.1878749 456.396873,86.1900009 C456.134385,86.2789008 455.734778,86.4732007 455.21688,86.7951426 C454.205046,87.4241307 452.7399,88.920292 451.022499,91.3351073 C450.494926,92.0769221 449.970916,92.9033058 449.452306,93.8139176 C449.648303,92.3799249 449.860495,90.9193966 450.088857,89.4322415 L460.534147,91.0361818 Z M438.176567,84.4233253 C436.351087,90.8122186 435.433727,97.578374 435.433727,104.750538 C435.433727,107.222301 435.532388,109.288118 435.717501,110.920107 C435.863552,112.207717 436.0475,113.086148 436.189118,113.476315 C436.142194,113.347034 436.042823,113.144274 435.867768,112.878872 C435.57125,112.429322 435.162848,111.973964 434.640468,111.557003 C433.447591,110.604855 432.004627,110.129032 430.734754,110.129032 C430.391976,110.129032 429.877441,110.213344 429.217584,110.468805 C428.177166,110.871599 427.178782,111.57979 426.396986,112.529546 C426.114258,112.873014 425.92975,113.157538 425.808605,113.386538 C425.785514,113.430189 425.800177,113.397024 425.838289,113.295703 C426.021933,112.807489 426.244073,112.021137 426.473588,110.974201 L426.499096,110.860719 C427.549713,106.299455 428.940602,101.938758 430.673802,97.7849359 C432.408642,93.627185 434.167314,90.1654858 436.015841,87.3522556 C436.733427,86.2601788 437.441107,85.2906742 438.176567,84.4233253 Z M445.25302,67.1506753 C448.753972,65.2546722 452.339239,64.2107527 456.03018,64.2107527 C460.818253,64.2107527 465.217354,65.808502 468.487302,69.2994489 C471.610834,72.6340854 472.96593,76.8864478 472.96593,81.5476703 C472.96593,83.9225639 472.592239,87.4768248 471.850484,92.6600822 L471.833981,92.7713427 C471.252022,96.561212 470.788319,100.134801 470.442285,103.490368 C470.117784,106.637136 469.952396,110.212592 469.952396,114.207168 C469.952396,119.101344 468.821063,123.348101 465.795107,126.786984 C462.487875,130.545526 457.9482,132.129032 452.925327,132.129032 C448.707844,132.129032 444.801635,130.911218 441.743538,128.216646 C438.731214,130.895203 434.876703,132.129032 430.734754,132.129032 C423.49574,132.129032 417.947716,127.700631 415.509233,120.982467 C414.031107,116.910144 413.433727,111.643537 413.433727,104.750538 C413.433727,95.2599423 414.707582,86.1813737 417.249793,77.5996817 C418.454557,73.4552982 420.732207,69.9521674 424.180001,67.5282171 C427.502732,65.1921918 431.418302,64.2107527 435.757312,64.2107527 C438.960148,64.2107527 441.6992,64.7329261 444.419588,66.5480793 C444.709869,66.7417671 444.98758,66.9427892 445.25302,67.1506753 Z M479.316584,132.129032 C473.669135,132.129032 468.605708,130.178125 464.978428,126.047534 C461.74054,122.360364 460.189172,117.722958 460.189172,112.647312 C460.189172,107.180794 461.828186,102.240221 465.279013,98.3394611 C469.034427,94.0944005 474.240263,91.9956989 480.047138,91.9956989 C485.469933,91.9956989 490.33042,93.6733403 493.975184,97.3914973 C497.573305,101.062073 499.174549,105.886561 499.174549,111.282437 C499.174549,116.814134 497.520853,121.804956 494.035181,125.740894 C490.277111,129.984418 485.090636,132.129032 479.316584,132.129032 Z M539.293835,128.05989 C536.923761,140.38296 533.882934,150.423274 530.074903,158.2566 C524.660857,169.393584 516.488273,176 505.890479,176 C499.849682,176 494.424465,173.801877 490.342206,169.511815 C486.355351,165.322013 484.388768,159.909254 484.388768,153.886022 C484.388768,149.350309 485.339452,144.818502 487.177929,140.345303 C488.983065,135.953224 492.008298,131.397709 496.225158,126.494057 C495.222802,125.464003 494.307358,124.306775 493.488747,123.0342 C490.535909,118.443856 489.137368,113.021683 489.137368,106.992832 C489.137368,101.593751 489.478631,96.5842408 490.172054,91.9574414 C490.865521,87.3303533 491.99437,82.4915246 493.564012,77.3917975 C494.793214,73.4549639 496.805065,70.156522 499.904352,67.7668677 C503.257242,65.1816769 507.244867,64.2107527 511.826229,64.2107527 C515.42295,64.2107527 518.615037,64.9540571 521.480542,67.29775 C524.538114,65.1142915 528.149832,64.2107527 532.099098,64.2107527 C535.586719,64.2107527 538.54677,64.8032724 541.399718,66.8337824 C545.13964,69.4955718 546.843186,73.5370844 546.843186,77.7455197 C546.843186,79.5168689 546.457261,82.7748583 545.632156,88.1533137 C546.044979,88.1154866 546.465042,88.0960573 546.892813,88.0960573 C551.87573,88.0960573 556.039231,90.806357 558.35417,94.9253468 C559.811902,97.5191025 560.449751,100.379125 560.449751,103.385663 C560.449751,106.45813 559.940351,109.254959 558.631974,111.849023 C557.362554,114.365849 555.491064,116.454641 553.212845,118.076011 L539.293835,128.05989 Z M506.894991,144.543369 C509.853256,144.543369 512.943558,146.231312 514.555741,149.144014 C515.142584,150.204253 515.338052,151.103178 515.338052,151.741219 C515.338052,151.420668 515.753891,150.217518 516.904181,148.313177 C518.373862,145.880076 521.085126,142.803853 525.034724,139.244443 L517.67066,131.073118 L506.916614,128.760003 C505.208623,136.700726 503.549527,142.214381 502.172714,144.964452 C501.63717,146.034157 501.240627,146.65841 501.156562,146.751361 C501.43849,146.43963 501.866589,146.074843 502.52238,145.691765 C503.722384,144.990786 505.210899,144.543369 506.894991,144.543369 Z M573.257024,95.496765 L574.17265,94.9792604 C576.702464,93.5494296 578.169269,92.211857 578.795856,91.1128935 C579.523261,89.8371038 579.887738,88.476739 579.907804,86.857019 C579.31394,87.2734786 578.621884,87.852149 577.849743,88.6033485 C576.35744,90.0551804 574.800324,92.3540725 573.257024,95.496765 Z M579.907804,86.857019 C579.908389,86.8097997 579.908681,86.7623599 579.908681,86.7146953 C579.908681,85.9749676 579.836184,85.7618115 579.701808,85.6018902 C579.967937,85.9186095 580.61584,86.2107527 580.772246,86.2107527 C580.92401,86.2107527 581.041303,86.1959928 581.108238,86.1799382 C581.012949,86.2126029 580.896257,86.2624305 580.733155,86.3472414 C580.484864,86.4763496 580.20896,86.6458269 579.907804,86.857019 Z M581.108238,86.1799382 C581.11277,86.1788511 581.117072,86.1777581 581.121137,86.1766633 C581.110501,86.1795274 581.09775,86.1834685 581.082887,86.1885747 Z M568.812548,106.786073 L549.134101,161.495487 L549.134101,98.4136201 C549.134101,94.6435932 549.230613,90.9686613 549.424085,87.3885048 L549.62601,83.6519225 L552.064616,80.8136089 C556.645172,75.4822604 560.416918,70.6102998 563.377617,66.2275267 C563.174057,67.2400822 562.97924,68.2726857 562.793257,69.3253261 C561.677166,75.642284 560.907032,81.7901762 560.480886,87.7695812 C561.235646,86.585837 562.018749,85.4729966 562.83225,84.4308179 C566.689408,79.4894061 571.108446,76.3971326 576.936839,76.3971326 C581.100813,76.3971326 584.815258,78.3262881 587.297339,81.5060867 C589.480096,84.3024214 590.311139,87.4963723 590.311139,90.90681 C590.311139,95.4131004 588.888494,99.6097697 586.049622,103.039287 C584.359217,105.081393 582.233614,106.791008 579.655964,108.292123 C579.820438,108.638932 580.025519,108.927493 580.269431,109.182168 C580.909341,109.850312 581.598699,110.129032 583.055227,110.129032 C583.186549,110.129032 583.276274,110.123781 583.323754,110.118124 C583.252693,110.131466 583.172655,110.15133 583.066741,110.185514 C582.564108,110.347743 581.995543,110.672028 581.47481,111.153831 C580.67623,111.892709 580,113.320531 580,114.889606 C580,116.164817 580.507019,117.735876 581.696837,119.130033 C582.309225,119.847593 583.017312,120.404408 583.746898,120.790687 C584.239275,121.051376 584.666976,121.199335 585.012663,121.271345 C581.267012,120.491091 578.25944,119.4388 575.739972,117.766796 C571.888173,115.210611 569.706048,111.329745 568.812548,106.786073 Z M560.480886,87.7695812 C560.216455,91.4799141 560.084474,95.125372 560.084474,98.7060932 C560.084474,104.287338 560.225685,108.448157 560.48686,111.069128 C560.585001,112.054003 560.714758,112.821774 560.85327,113.348808 C560.889169,113.485404 560.91785,113.576637 560.933783,113.620087 C560.891149,113.521498 560.831936,113.404703 560.739032,113.250798 C559.566828,111.308928 557.331867,110.129032 555.47682,110.129032 C555.134042,110.129032 554.619507,110.213344 553.95965,110.468805 C552.919232,110.871599 551.920848,111.57979 551.139052,112.529546 C550.856324,112.873014 550.671816,113.157538 550.550671,113.386538 C550.52758,113.430189 550.542243,113.397024 550.580355,113.295703 C550.763999,112.807489 550.986139,112.021137 551.215654,110.974201 L551.241716,110.858315 C552.361373,106.002293 553.901705,101.27454 555.860225,96.6820582 C557.276277,93.3615925 558.80905,90.391643 560.480886,87.7695812 Z M579.655964,108.292123 C578.636116,108.886039 577.545505,109.447317 576.383087,109.983636 C576.941121,109.726173 577.63499,109.166934 578.225794,108.283908 C578.878546,107.308291 579.170193,106.265236 579.170193,105.432975 C579.170193,106.724889 579.336458,107.618411 579.655964,108.292123 Z M576.383087,109.983636 C576.37805,109.98596 576.373011,109.988284 576.367971,109.990607 C576.372986,109.988331 576.378012,109.986031 576.383049,109.983707 Z M597.03761,103.428478 C600.158457,106.200927 602,110.203119 602,114.889606 C602,119.708398 599.953996,124.028425 596.415825,127.302083 C592.812764,130.635781 588.186231,132.129032 583.055227,132.129032 C577.220168,132.129032 571.924291,130.46387 567.532503,127.189802 C564.394044,130.581381 560.115706,132.129032 555.47682,132.129032 C549.847227,132.129032 544.842276,129.486786 541.904559,124.62017 C540.024916,121.506359 539.04727,117.786432 538.595281,113.250585 C538.247658,109.762087 538.084474,104.953821 538.084474,98.7060932 C538.084474,88.0390828 539.102022,76.9689776 541.128802,65.497613 C543.223542,53.6416071 546.370692,43.5078637 550.644811,35.0867455 C556.076387,24.3851367 563.848943,18 573.923304,18 C580.493054,18 586.118253,21.1840597 589.840361,26.6914227 C592.906781,31.2286057 594.329185,36.6900103 594.329185,42.8437276 C594.329185,50.4291452 592.498093,58.0990378 588.936741,65.8037152 C591.833299,67.0174747 594.414092,68.912927 596.545081,71.4490059 C600.124371,75.7087004 601.908681,80.9549879 601.908681,86.7146953 C601.908681,92.1814191 600.568286,97.3431893 597.907629,102.009687 C597.633077,102.491221 597.342999,102.964104 597.03761,103.428478 Z M569.279034,88.8174928 C569.281797,88.8151246 569.284396,88.8128659 569.28683,88.8107179 C569.280675,88.8161501 569.273477,88.8228087 569.265269,88.8307362 Z M587.479399,99.1877242 C587.478255,99.1871833 587.477117,99.1866467 587.475985,99.1861143 C587.478225,99.1871675 587.483009,99.1892149 587.490292,99.1921815 Z M572.0056,49.6516129 C569.639015,49.6516129 567.362346,48.7533762 565.663705,47.2119496 C564.559951,46.2103504 563.927934,45.1982509 563.568908,44.267402 C563.489153,44.0606185 563.43865,43.8944691 563.408136,43.7657174 C563.400412,43.7331266 563.40216,43.7427759 563.408592,43.7908409 C563.445773,44.0687015 563.47122,44.507245 563.47122,45.0860215 C563.47122,47.976559 562.59573,51.5767276 560.708475,55.8550798 C558.622332,60.5843052 555.991256,64.9415223 552.80435,68.9474473 L561.41257,75.7956989 L572.336494,77.087163 C573.087012,70.738862 574.048389,64.902447 575.216083,59.5815388 C576.345273,54.4360868 577.482123,50.4666236 578.565579,47.7589397 C578.783755,47.213691 578.977702,46.7797187 579.136602,46.4677028 C579.209851,46.3238715 579.231667,46.2873016 579.165548,46.3781831 C578.837282,46.82939 578.360035,47.3339921 577.608338,47.8777886 C576.13428,48.94416 574.229899,49.6516129 572.0056,49.6516129 Z" fill="#ED9914" fill-rule="evenodd"></path>
                </g>
                <text fill="#ED9914" font-family="Pacifico-Regular, Pacifico" font-size="91" font-weight="normal" letter-spacing="4.55">
                    <tspan x="0" y="119">@ngeduren.yk</tspan>
                </text>
            </g>
        </g>
    </g>
</svg>